<?xml version="1.0" encoding="UTF-8" standalone="no"?>
<!-- Created with Inkscape (http://www.inkscape.org/) -->

<svg
   width="210mm"
   height="297mm"
   viewBox="0 0 210 297"
   version="1.1"
   id="svg1"
   inkscape:version="1.4.2 (2aeb623e1d, 2025-05-12)"
   sodipodi:docname="trial_square.svg"
   xmlns:inkscape="http://www.inkscape.org/namespaces/inkscape"
   xmlns:sodipodi="http://sodipodi.sourceforge.net/DTD/sodipodi-0.dtd"
   xmlns="http://www.w3.org/2000/svg"
   xmlns:svg="http://www.w3.org/2000/svg">
  <sodipodi:namedview
     id="namedview1"
     pagecolor="#ffffff"
     bordercolor="#000000"
     borderopacity="0.25"
     inkscape:showpageshadow="2"
     inkscape:pageopacity="0.0"
     inkscape:pagecheckerboard="0"
     inkscape:deskcolor="#d1d1d1"
     inkscape:document-units="mm"
     showgrid="true"
     inkscape:zoom="0.78484147"
     inkscape:cx="396.25837"
     inkscape:cy="459.32843"
     inkscape:window-width="1850"
     inkscape:window-height="1131"
     inkscape:window-x="0"
     inkscape:window-y="0"
     inkscape:window-maximized="1"
     inkscape:current-layer="layer1">
    <inkscape:grid
       id="grid2"
       units="mm"
       originx="0"
       originy="0"
       spacingx="0.99999998"
       spacingy="1"
       empcolor="#0099e5"
       empopacity="0.30196078"
       color="#0099e5"
       opacity="0.14901961"
       empspacing="5"
       enabled="true"
       visible="true" />
  </sodipodi:namedview>
  <defs
     id="defs1" />
  <g
     inkscape:label="Layer 1"
     inkscape:groupmode="layer"
     id="layer1"
     style="fill:#000000;fill-opacity:1">
    <rect
       style="fill:none;fill-opacity:1;stroke:#0000ff;stroke-width:0.7;stroke-dasharray:none"
       id="rect1-1-61"
       width="69.169052"
       height="69.169052"
       x="82.725136"
       y="11.552288" />
    <path
       style="fill:none;fill-opacity:1;stroke:#0000ff;stroke-width:0.7;stroke-dasharray:none;stroke-opacity:1"
       d="m 102.85943,21.864775 a 3.5414737,3.5414736 0 0 0 -3.541515,3.54151 3.5414737,3.5414736 0 0 0 3.541515,3.54151 3.5414737,3.5414736 0 0 0 3.54151,-3.54151 3.5414737,3.5414736 0 0 0 -3.54151,-3.54151 z"
       id="path10-0-0" />
    <path
       style="fill:none;fill-opacity:1;stroke:#0000ff;stroke-width:0.7;stroke-dasharray:none;stroke-opacity:1"
       d="m 131.85943,21.864955 a 3.5413121,3.5413126 0 0 0 -3.54134,3.54134 3.5413121,3.5413126 0 0 0 3.54134,3.54134 3.5413121,3.5413126 0 0 0 3.54134,-3.54134 3.5413121,3.5413126 0 0 0 -3.54134,-3.54134 z"
       id="path10-36-6-6" />
    <path
       style="fill:none;fill-opacity:1;stroke:#0000ff;stroke-width:0.7;stroke-dasharray:none;stroke-opacity:1"
       d="m 102.85943,51.964595 a 3.5414762,3.5414761 0 0 0 -3.541515,3.54152 3.5414762,3.5414761 0 0 0 3.541515,3.5415 3.5414762,3.5414761 0 0 0 3.54152,-3.5415 3.5414762,3.5414761 0 0 0 -3.54152,-3.54152 z"
       id="path10-7-1-3" />
    <path
       style="fill:none;fill-opacity:1;stroke:#0000ff;stroke-width:0.7;stroke-dasharray:none;stroke-opacity:1"
       d="m 131.85943,51.965135 a 3.5413121,3.5413126 0 0 0 -3.54134,3.54134 3.5413121,3.5413126 0 0 0 3.54134,3.54133 3.5413121,3.5413126 0 0 0 3.54134,-3.54133 3.5413121,3.5413126 0 0 0 -3.54134,-3.54134 z"
       id="path10-36-5-5-2" />
    <path
       style="fill:none;fill-opacity:1;stroke:#0000ff;stroke-width:0.7;stroke-dasharray:none;stroke-opacity:1"
       d="m 102.85943,66.964955 a 3.5414737,3.5414736 0 0 0 -3.541515,3.54151 3.5414737,3.5414736 0 0 0 3.541515,3.5415 3.5414737,3.5414736 0 0 0 3.54151,-3.5415 3.5414737,3.5414736 0 0 0 -3.54151,-3.54151 z"
       id="path10-7-9-9-0" />
    <path
       style="fill:none;fill-opacity:1;stroke:#0000ff;stroke-width:0.7;stroke-dasharray:none;stroke-opacity:1"
       d="m 131.85943,66.965135 a 3.5413121,3.5413126 0 0 0 -3.54134,3.54133 3.5413121,3.5413126 0 0 0 3.54134,3.54134 3.5413121,3.5413126 0 0 0 3.54134,-3.54134 3.5413121,3.5413126 0 0 0 -3.54134,-3.54133 z"
       id="path10-36-5-7-4-6" />
    <rect
       style="fill:none;fill-opacity:1;stroke:#0000ff;stroke-width:0.7;stroke-dasharray:none"
       id="rect1-1-6-1"
       width="69.169052"
       height="69.169052"
       x="9.9952841"
       y="11.410542" />
    <path
       style="fill:none;fill-opacity:1;stroke:#0000ff;stroke-width:0.7;stroke-dasharray:none;stroke-opacity:1"
       d="m 30.129565,21.723045 a 3.5414737,3.5414736 0 0 0 -3.54151,3.54152 3.5414737,3.5414736 0 0 0 3.54151,3.5415 3.5414737,3.5414736 0 0 0 3.54151,-3.5415 3.5414737,3.5414736 0 0 0 -3.54151,-3.54152 z"
       id="path10-0-1-5" />
    <path
       style="fill:none;fill-opacity:1;stroke:#0000ff;stroke-width:0.7;stroke-dasharray:none;stroke-opacity:1"
       d="m 59.129565,21.723225 a 3.5413121,3.5413126 0 0 0 -3.54134,3.54134 3.5413121,3.5413126 0 0 0 3.54134,3.54134 3.5413121,3.5413126 0 0 0 3.54134,-3.54134 3.5413121,3.5413126 0 0 0 -3.54134,-3.54134 z"
       id="path10-36-6-8-5" />
    <path
       style="fill:none;fill-opacity:1;stroke:#0000ff;stroke-width:0.7;stroke-dasharray:none;stroke-opacity:1"
       d="m 30.129565,51.822865 a 3.5414762,3.5414761 0 0 0 -3.54151,3.54151 3.5414762,3.5414761 0 0 0 3.54151,3.54151 3.5414762,3.5414761 0 0 0 3.54152,-3.54151 3.5414762,3.5414761 0 0 0 -3.54152,-3.54151 z"
       id="path10-7-1-7-4" />
    <path
       style="fill:none;fill-opacity:1;stroke:#0000ff;stroke-width:0.7;stroke-dasharray:none;stroke-opacity:1"
       d="m 59.129565,51.823405 a 3.5413121,3.5413126 0 0 0 -3.54134,3.54133 3.5413121,3.5413126 0 0 0 3.54134,3.54134 3.5413121,3.5413126 0 0 0 3.54134,-3.54134 3.5413121,3.5413126 0 0 0 -3.54134,-3.54133 z"
       id="path10-36-5-5-9-7" />
    <path
       style="fill:none;fill-opacity:1;stroke:#0000ff;stroke-width:0.7;stroke-dasharray:none;stroke-opacity:1"
       d="m 30.129565,66.823225 a 3.5414737,3.5414736 0 0 0 -3.54151,3.54151 3.5414737,3.5414736 0 0 0 3.54151,3.5415 3.5414737,3.5414736 0 0 0 3.54151,-3.5415 3.5414737,3.5414736 0 0 0 -3.54151,-3.54151 z"
       id="path10-7-9-9-2-6" />
    <path
       style="fill:none;fill-opacity:1;stroke:#0000ff;stroke-width:0.7;stroke-dasharray:none;stroke-opacity:1"
       d="m 59.129565,66.823405 a 3.5413121,3.5413126 0 0 0 -3.54134,3.54133 3.5413121,3.5413126 0 0 0 3.54134,3.54134 3.5413121,3.5413126 0 0 0 3.54134,-3.54134 3.5413121,3.5413126 0 0 0 -3.54134,-3.54133 z"
       id="path10-36-5-7-4-0-5" />
    <rect
       style="fill:none;fill-opacity:1;stroke:#0000ff;stroke-width:0.7;stroke-dasharray:none"
       id="rect1-1-61-8-6"
       width="34.294369"
       height="69.463425"
       x="17.899382"
       y="91.762657" />
    <path
       style="fill:none;fill-opacity:1;stroke:#0000ff;stroke-width:0.7;stroke-dasharray:none;stroke-opacity:1"
       d="m 35.880354,102.2225 a 3.5413121,3.5413126 0 0 0 -3.54134,3.54134 3.5413121,3.5413126 0 0 0 3.54134,3.54134 3.5413121,3.5413126 0 0 0 3.54134,-3.54134 3.5413121,3.5413126 0 0 0 -3.54134,-3.54134 z"
       id="path10-36-6-6-8-8" />
    <path
       style="fill:none;fill-opacity:1;stroke:#0000ff;stroke-width:0.7;stroke-dasharray:none;stroke-opacity:1"
       d="m 35.880354,132.32268 a 3.5413121,3.5413126 0 0 0 -3.54134,3.54134 3.5413121,3.5413126 0 0 0 3.54134,3.54133 3.5413121,3.5413126 0 0 0 3.54134,-3.54133 3.5413121,3.5413126 0 0 0 -3.54134,-3.54134 z"
       id="path10-36-5-5-2-4-9" />
    <path
       style="fill:none;fill-opacity:1;stroke:#0000ff;stroke-width:0.7;stroke-dasharray:none;stroke-opacity:1"
       d="m 35.880354,147.32268 a 3.5413121,3.5413126 0 0 0 -3.54134,3.54133 3.5413121,3.5413126 0 0 0 3.54134,3.54134 3.5413121,3.5413126 0 0 0 3.54134,-3.54134 3.5413121,3.5413126 0 0 0 -3.54134,-3.54133 z"
       id="path10-36-5-7-4-6-1-2" />
    <rect
       style="fill:none;fill-opacity:1;stroke:#0000ff;stroke-width:0.7;stroke-dasharray:none"
       id="rect1-1-61-8-6-0"
       width="34.294369"
       height="69.463425"
       x="59.979656"
       y="92.276962" />
    <path
       style="fill:none;fill-opacity:1;stroke:#0000ff;stroke-width:0.7;stroke-dasharray:none;stroke-opacity:1"
       d="m 77.96063,102.73681 a 3.5413121,3.5413126 0 0 0 -3.54134,3.54134 3.5413121,3.5413126 0 0 0 3.54134,3.54134 3.5413121,3.5413126 0 0 0 3.54134,-3.54134 3.5413121,3.5413126 0 0 0 -3.54134,-3.54134 z"
       id="path10-36-6-6-8-8-9" />
    <path
       style="fill:none;fill-opacity:1;stroke:#0000ff;stroke-width:0.7;stroke-dasharray:none;stroke-opacity:1"
       d="m 77.96063,132.83699 a 3.5413121,3.5413126 0 0 0 -3.54134,3.54134 3.5413121,3.5413126 0 0 0 3.54134,3.54133 3.5413121,3.5413126 0 0 0 3.54134,-3.54133 3.5413121,3.5413126 0 0 0 -3.54134,-3.54134 z"
       id="path10-36-5-5-2-4-9-3" />
    <path
       style="fill:none;fill-opacity:1;stroke:#0000ff;stroke-width:0.7;stroke-dasharray:none;stroke-opacity:1"
       d="m 77.96063,147.83699 a 3.5413121,3.5413126 0 0 0 -3.54134,3.54133 3.5413121,3.5413126 0 0 0 3.54134,3.54134 3.5413121,3.5413126 0 0 0 3.54134,-3.54134 3.5413121,3.5413126 0 0 0 -3.54134,-3.54133 z"
       id="path10-36-5-7-4-6-1-2-6" />
  </g>
</svg>
