<?xml version="1.0" encoding="UTF-8" standalone="no"?>
<!-- Created with Inkscape (http://www.inkscape.org/) -->

<svg
   width="841mm"
   height="1189mm"
   viewBox="0 0 841 1189"
   version="1.1"
   id="svg1"
   inkscape:version="1.4.2 (2aeb623e1d, 2025-05-12)"
   sodipodi:docname="trial.svg"
   xmlns:inkscape="http://www.inkscape.org/namespaces/inkscape"
   xmlns:sodipodi="http://sodipodi.sourceforge.net/DTD/sodipodi-0.dtd"
   xmlns="http://www.w3.org/2000/svg"
   xmlns:svg="http://www.w3.org/2000/svg">
  <sodipodi:namedview
     id="namedview1"
     pagecolor="#ffffff"
     bordercolor="#000000"
     borderopacity="0.25"
     inkscape:showpageshadow="2"
     inkscape:pageopacity="0.0"
     inkscape:pagecheckerboard="0"
     inkscape:deskcolor="#d1d1d1"
     inkscape:document-units="mm"
     showgrid="true"
     inkscape:zoom="0.35355339"
     inkscape:cx="673.16566"
     inkscape:cy="1005.5058"
     inkscape:window-width="1850"
     inkscape:window-height="1131"
     inkscape:window-x="0"
     inkscape:window-y="0"
     inkscape:window-maximized="1"
     inkscape:current-layer="layer1">
    <inkscape:grid
       id="grid2"
       units="mm"
       originx="0"
       originy="0"
       spacingx="0.99999998"
       spacingy="1"
       empcolor="#0099e5"
       empopacity="0.30196078"
       color="#0099e5"
       opacity="0.14901961"
       empspacing="5"
       enabled="true"
       visible="true" />
  </sodipodi:namedview>
  <defs
     id="defs1" />
  <g
     inkscape:label="Layer 1"
     inkscape:groupmode="layer"
     id="layer1"
     style="fill:#000000;fill-opacity:1">
    <path
       style="fill:none;fill-opacity:1;stroke:#0000ff;stroke-width:1;stroke-dasharray:none;stroke-opacity:1"
       d="M 10.427031,10.793109 10.855618,94.291331 138.57478,94.58228 Z"
       id="path3" />
    <path
       style="fill:none;fill-opacity:1;stroke:#0000ff;stroke-width:1;stroke-dasharray:none;stroke-opacity:1"
       d="m 23.347753,32.697 a 3.4507272,3.4507276 0 0 0 -3.450527,3.450939 3.4507272,3.4507276 0 0 0 3.450527,3.450938 3.4507272,3.4507276 0 0 0 3.450939,-3.450938 A 3.4507272,3.4507276 0 0 0 23.347753,32.697 Z"
       id="path10-18" />
    <path
       style="fill:none;fill-opacity:1;stroke:#0000ff;stroke-width:1;stroke-dasharray:none;stroke-opacity:1"
       d="m 23.347527,47.696774 a 3.4507272,3.4507276 0 0 0 -3.450527,3.450939 3.4507272,3.4507276 0 0 0 3.450527,3.450938 3.4507272,3.4507276 0 0 0 3.450939,-3.450938 3.4507272,3.4507276 0 0 0 -3.450939,-3.450939 z"
       id="path10-18-3" />
    <path
       style="fill:none;fill-opacity:1;stroke:#0000ff;stroke-width:1;stroke-dasharray:none;stroke-opacity:1"
       d="m 23.347753,128.325 a 3.4507272,3.4507276 0 0 0 -3.450527,3.45094 3.4507272,3.4507276 0 0 0 3.450527,3.45094 3.4507272,3.4507276 0 0 0 3.450939,-3.45094 3.4507272,3.4507276 0 0 0 -3.450939,-3.45094 z"
       id="path10-18-6" />
    <path
       style="fill:none;fill-opacity:1;stroke:#0000ff;stroke-width:1;stroke-dasharray:none;stroke-opacity:1"
       d="m 23.347527,143.32477 a 3.4507272,3.4507276 0 0 0 -3.450527,3.45094 3.4507272,3.4507276 0 0 0 3.450527,3.45094 3.4507272,3.4507276 0 0 0 3.450939,-3.45094 3.4507272,3.4507276 0 0 0 -3.450939,-3.45094 z"
       id="path10-18-3-18" />
    <path
       style="fill:none;fill-opacity:1;stroke:#0000ff;stroke-width:1;stroke-dasharray:none;stroke-opacity:1"
       d="M 93.850527,77.7 A 3.4507272,3.4507276 0 0 0 90.4,81.150939 3.4507272,3.4507276 0 0 0 93.850527,84.601877 3.4507272,3.4507276 0 0 0 97.301466,81.150939 3.4507272,3.4507276 0 0 0 93.850527,77.7 Z"
       id="path10-18-3-1" />
    <path
       style="fill:none;fill-opacity:1;stroke:#0000ff;stroke-width:1;stroke-dasharray:none;stroke-opacity:1"
       d="M 78.850527,77.7 A 3.4507272,3.4507276 0 0 0 75.4,81.150939 3.4507272,3.4507276 0 0 0 78.850527,84.601877 3.4507272,3.4507276 0 0 0 82.301466,81.150939 3.4507272,3.4507276 0 0 0 78.850527,77.7 Z"
       id="path10-18-3-1-3" />
    <path
       style="fill:none;fill-opacity:1;stroke:#0000ff;stroke-width:1;stroke-dasharray:none;stroke-opacity:1"
       d="M 145.70697,94.347177 145.27839,10.848955 17.559231,10.558005 Z"
       id="path3-28" />
    <path
       style="fill:none;fill-opacity:1;stroke:#0000ff;stroke-width:1;stroke-dasharray:none;stroke-opacity:1"
       d="m 132.78625,72.443287 a 3.4507272,3.4507276 0 0 0 3.45053,-3.45094 3.4507272,3.4507276 0 0 0 -3.45053,-3.45093 3.4507272,3.4507276 0 0 0 -3.45094,3.45093 3.4507272,3.4507276 0 0 0 3.45094,3.45094 z"
       id="path10-18-9" />
    <path
       style="fill:none;fill-opacity:1;stroke:#0000ff;stroke-width:1;stroke-dasharray:none;stroke-opacity:1"
       d="m 132.78648,57.443517 a 3.4507272,3.4507276 0 0 0 3.45053,-3.45094 3.4507272,3.4507276 0 0 0 -3.45053,-3.45094 3.4507272,3.4507276 0 0 0 -3.45094,3.45094 3.4507272,3.4507276 0 0 0 3.45094,3.45094 z"
       id="path10-18-3-7" />
    <path
       style="fill:none;fill-opacity:1;stroke:#0000ff;stroke-width:1;stroke-dasharray:none;stroke-opacity:1"
       d="m 62.283481,27.440285 a 3.4507272,3.4507276 0 0 0 3.45053,-3.45093 3.4507272,3.4507276 0 0 0 -3.45053,-3.45094 3.4507272,3.4507276 0 0 0 -3.45094,3.45094 3.4507272,3.4507276 0 0 0 3.45094,3.45093 z"
       id="path10-18-3-1-36" />
    <path
       style="fill:none;fill-opacity:1;stroke:#0000ff;stroke-width:1;stroke-dasharray:none;stroke-opacity:1"
       d="m 77.283483,27.440285 a 3.4507272,3.4507276 0 0 0 3.45053,-3.45093 3.4507272,3.4507276 0 0 0 -3.45053,-3.45094 3.4507272,3.4507276 0 0 0 -3.450942,3.45094 3.4507272,3.4507276 0 0 0 3.450942,3.45093 z"
       id="path10-18-3-1-3-1" />
    <path
       style="fill:none;fill-opacity:1;stroke:#0000ff;stroke-width:1;stroke-dasharray:none;stroke-opacity:1"
       d="m 78.65053,172.6 a 3.4507272,3.4507276 0 0 0 -3.45053,3.45094 3.4507272,3.4507276 0 0 0 3.45053,3.45094 3.4507272,3.4507276 0 0 0 3.45094,-3.45094 A 3.4507272,3.4507276 0 0 0 78.65053,172.6 Z"
       id="path10-18-3-1-2" />
    <path
       style="fill:none;fill-opacity:1;stroke:#0000ff;stroke-width:1;stroke-dasharray:none;stroke-opacity:1"
       d="M 63.650527,172.6 A 3.4507272,3.4507276 0 0 0 60.2,176.05094 3.4507272,3.4507276 0 0 0 63.650527,179.50188 3.4507272,3.4507276 0 0 0 67.10147,176.05094 3.4507272,3.4507276 0 0 0 63.650527,172.6 Z"
       id="path10-18-3-1-3-3" />
    <path
       style="fill:none;fill-opacity:1;stroke:#0000ff;stroke-width:0.928074;stroke-dasharray:none;stroke-opacity:1"
       d="m 10.467817,105.97461 0.345359,83.12113 102.917084,0.28964 z"
       id="path3-2" />
    <path
       style="fill:none;fill-opacity:1;stroke:#0000ff;stroke-width:1;stroke-dasharray:none;stroke-opacity:1"
       d="m 106.51672,166.83228 a 3.4507272,3.4507276 0 0 0 3.45053,-3.45094 3.4507272,3.4507276 0 0 0 -3.45053,-3.45094 3.4507272,3.4507276 0 0 0 -3.45093,3.45094 3.4507272,3.4507276 0 0 0 3.45093,3.45094 z"
       id="path10-18-6-9" />
    <path
       style="fill:none;fill-opacity:1;stroke:#0000ff;stroke-width:1;stroke-dasharray:none;stroke-opacity:1"
       d="m 106.51695,151.83251 a 3.4507272,3.4507276 0 0 0 3.45053,-3.45093 3.4507272,3.4507276 0 0 0 -3.45053,-3.45094 3.4507272,3.4507276 0 0 0 -3.45094,3.45094 3.4507272,3.4507276 0 0 0 3.45094,3.45093 z"
       id="path10-18-3-18-4" />
    <path
       style="fill:none;fill-opacity:1;stroke:#0000ff;stroke-width:1;stroke-dasharray:none;stroke-opacity:1"
       d="m 51.213948,122.55729 a 3.4507272,3.4507276 0 0 0 3.45053,-3.45094 3.4507272,3.4507276 0 0 0 -3.45053,-3.45094 3.4507272,3.4507276 0 0 0 -3.45094,3.45094 3.4507272,3.4507276 0 0 0 3.45094,3.45094 z"
       id="path10-18-3-1-2-7" />
    <path
       style="fill:none;fill-opacity:1;stroke:#0000ff;stroke-width:1;stroke-dasharray:none;stroke-opacity:1"
       d="m 66.213953,122.55729 a 3.4507272,3.4507276 0 0 0 3.45052,-3.45094 3.4507272,3.4507276 0 0 0 -3.45052,-3.45094 3.4507272,3.4507276 0 0 0 -3.450945,3.45094 3.4507272,3.4507276 0 0 0 3.450945,3.45094 z"
       id="path10-18-3-1-3-3-8" />
    <path
       style="fill:none;fill-opacity:1;stroke:#0000ff;stroke-width:0.928074;stroke-dasharray:none;stroke-opacity:1"
       d="M 119.39666,189.18267 119.0513,106.06155 16.134218,105.77191 Z"
       id="path3-2-4" />
    <path
       style="fill:none;fill-opacity:1;stroke:#0000ff;stroke-width:1;stroke-dasharray:none;stroke-opacity:1"
       d="m 135.97143,102.26285 0.42859,83.49822 127.71916,0.29095 z"
       id="path3-4" />
    <path
       style="fill:none;fill-opacity:1;stroke:#0000ff;stroke-width:1;stroke-dasharray:none;stroke-opacity:1"
       d="m 148.89215,124.16674 a 3.4507272,3.4507276 0 0 0 -3.45052,3.45094 3.4507272,3.4507276 0 0 0 3.45052,3.45094 3.4507272,3.4507276 0 0 0 3.45094,-3.45094 3.4507272,3.4507276 0 0 0 -3.45094,-3.45094 z"
       id="path10-18-4" />
    <path
       style="fill:none;fill-opacity:1;stroke:#0000ff;stroke-width:1;stroke-dasharray:none;stroke-opacity:1"
       d="m 148.89193,139.16652 a 3.4507272,3.4507276 0 0 0 -3.45053,3.45094 3.4507272,3.4507276 0 0 0 3.45053,3.45093 3.4507272,3.4507276 0 0 0 3.45094,-3.45093 3.4507272,3.4507276 0 0 0 -3.45094,-3.45094 z"
       id="path10-18-3-3" />
    <path
       style="fill:none;fill-opacity:1;stroke:#0000ff;stroke-width:1;stroke-dasharray:none;stroke-opacity:1"
       d="m 148.89215,219.79474 a 3.4507272,3.4507276 0 0 0 -3.45052,3.45094 3.4507272,3.4507276 0 0 0 3.45052,3.45094 3.4507272,3.4507276 0 0 0 3.45094,-3.45094 3.4507272,3.4507276 0 0 0 -3.45094,-3.45094 z"
       id="path10-18-6-0" />
    <path
       style="fill:none;fill-opacity:1;stroke:#0000ff;stroke-width:1;stroke-dasharray:none;stroke-opacity:1"
       d="m 148.89193,234.79451 a 3.4507272,3.4507276 0 0 0 -3.45053,3.45094 3.4507272,3.4507276 0 0 0 3.45053,3.45094 3.4507272,3.4507276 0 0 0 3.45094,-3.45094 3.4507272,3.4507276 0 0 0 -3.45094,-3.45094 z"
       id="path10-18-3-18-7" />
    <path
       style="fill:none;fill-opacity:1;stroke:#0000ff;stroke-width:1;stroke-dasharray:none;stroke-opacity:1"
       d="m 219.39493,169.16974 a 3.4507272,3.4507276 0 0 0 -3.45053,3.45094 3.4507272,3.4507276 0 0 0 3.45053,3.45094 3.4507272,3.4507276 0 0 0 3.45094,-3.45094 3.4507272,3.4507276 0 0 0 -3.45094,-3.45094 z"
       id="path10-18-3-1-8" />
    <path
       style="fill:none;fill-opacity:1;stroke:#0000ff;stroke-width:1;stroke-dasharray:none;stroke-opacity:1"
       d="m 204.39493,169.16974 a 3.4507272,3.4507276 0 0 0 -3.45053,3.45094 3.4507272,3.4507276 0 0 0 3.45053,3.45094 3.4507272,3.4507276 0 0 0 3.45094,-3.45094 3.4507272,3.4507276 0 0 0 -3.45094,-3.45094 z"
       id="path10-18-3-1-3-6" />
    <path
       style="fill:none;fill-opacity:1;stroke:#0000ff;stroke-width:1;stroke-dasharray:none;stroke-opacity:1"
       d="M 271.25137,185.81692 270.82279,102.3187 143.10363,102.02775 Z"
       id="path3-28-8" />
    <path
       style="fill:none;fill-opacity:1;stroke:#0000ff;stroke-width:1;stroke-dasharray:none;stroke-opacity:1"
       d="m 258.33065,163.91303 a 3.4507272,3.4507276 0 0 0 3.45053,-3.45094 3.4507272,3.4507276 0 0 0 -3.45053,-3.45093 3.4507272,3.4507276 0 0 0 -3.45094,3.45093 3.4507272,3.4507276 0 0 0 3.45094,3.45094 z"
       id="path10-18-9-8" />
    <path
       style="fill:none;fill-opacity:1;stroke:#0000ff;stroke-width:1;stroke-dasharray:none;stroke-opacity:1"
       d="m 258.33088,148.91326 a 3.4507272,3.4507276 0 0 0 3.45053,-3.45094 3.4507272,3.4507276 0 0 0 -3.45053,-3.45094 3.4507272,3.4507276 0 0 0 -3.45094,3.45094 3.4507272,3.4507276 0 0 0 3.45094,3.45094 z"
       id="path10-18-3-7-4" />
    <path
       style="fill:none;fill-opacity:1;stroke:#0000ff;stroke-width:1;stroke-dasharray:none;stroke-opacity:1"
       d="m 187.82788,118.91003 a 3.4507272,3.4507276 0 0 0 3.45053,-3.45093 3.4507272,3.4507276 0 0 0 -3.45053,-3.45094 3.4507272,3.4507276 0 0 0 -3.45094,3.45094 3.4507272,3.4507276 0 0 0 3.45094,3.45093 z"
       id="path10-18-3-1-36-3" />
    <path
       style="fill:none;fill-opacity:1;stroke:#0000ff;stroke-width:1;stroke-dasharray:none;stroke-opacity:1"
       d="m 202.82789,118.91003 a 3.4507272,3.4507276 0 0 0 3.45052,-3.45093 3.4507272,3.4507276 0 0 0 -3.45052,-3.45094 3.4507272,3.4507276 0 0 0 -3.45095,3.45094 3.4507272,3.4507276 0 0 0 3.45095,3.45093 z"
       id="path10-18-3-1-3-1-1" />
    <path
       style="fill:none;fill-opacity:1;stroke:#0000ff;stroke-width:1;stroke-dasharray:none;stroke-opacity:1"
       d="m 204.19493,264.06974 a 3.4507272,3.4507276 0 0 0 -3.45053,3.45094 3.4507272,3.4507276 0 0 0 3.45053,3.45094 3.4507272,3.4507276 0 0 0 3.45094,-3.45094 3.4507272,3.4507276 0 0 0 -3.45094,-3.45094 z"
       id="path10-18-3-1-2-4" />
    <path
       style="fill:none;fill-opacity:1;stroke:#0000ff;stroke-width:1;stroke-dasharray:none;stroke-opacity:1"
       d="m 189.19493,264.06974 a 3.4507272,3.4507276 0 0 0 -3.45053,3.45094 3.4507272,3.4507276 0 0 0 3.45053,3.45094 3.4507272,3.4507276 0 0 0 3.45094,-3.45094 3.4507272,3.4507276 0 0 0 -3.45094,-3.45094 z"
       id="path10-18-3-1-3-3-9" />
    <path
       style="fill:none;fill-opacity:1;stroke:#0000ff;stroke-width:0.928074;stroke-dasharray:none;stroke-opacity:1"
       d="m 136.01222,197.44435 0.34536,83.12113 102.91708,0.28964 z"
       id="path3-2-2" />
    <path
       style="fill:none;fill-opacity:1;stroke:#0000ff;stroke-width:1;stroke-dasharray:none;stroke-opacity:1"
       d="m 232.06112,258.30202 a 3.4507272,3.4507276 0 0 0 3.45053,-3.45094 3.4507272,3.4507276 0 0 0 -3.45053,-3.45094 3.4507272,3.4507276 0 0 0 -3.45093,3.45094 3.4507272,3.4507276 0 0 0 3.45093,3.45094 z"
       id="path10-18-6-9-0" />
    <path
       style="fill:none;fill-opacity:1;stroke:#0000ff;stroke-width:1;stroke-dasharray:none;stroke-opacity:1"
       d="m 232.06135,243.30225 a 3.4507272,3.4507276 0 0 0 3.45053,-3.45093 3.4507272,3.4507276 0 0 0 -3.45053,-3.45094 3.4507272,3.4507276 0 0 0 -3.45094,3.45094 3.4507272,3.4507276 0 0 0 3.45094,3.45093 z"
       id="path10-18-3-18-4-6" />
    <path
       style="fill:none;fill-opacity:1;stroke:#0000ff;stroke-width:1;stroke-dasharray:none;stroke-opacity:1"
       d="m 176.75835,214.02703 a 3.4507272,3.4507276 0 0 0 3.45053,-3.45094 3.4507272,3.4507276 0 0 0 -3.45053,-3.45094 3.4507272,3.4507276 0 0 0 -3.45094,3.45094 3.4507272,3.4507276 0 0 0 3.45094,3.45094 z"
       id="path10-18-3-1-2-7-8" />
    <path
       style="fill:none;fill-opacity:1;stroke:#0000ff;stroke-width:1;stroke-dasharray:none;stroke-opacity:1"
       d="m 191.75835,214.02703 a 3.4507272,3.4507276 0 0 0 3.45052,-3.45094 3.4507272,3.4507276 0 0 0 -3.45052,-3.45094 3.4507272,3.4507276 0 0 0 -3.45094,3.45094 3.4507272,3.4507276 0 0 0 3.45094,3.45094 z"
       id="path10-18-3-1-3-3-8-9" />
    <path
       style="fill:none;fill-opacity:1;stroke:#0000ff;stroke-width:0.928074;stroke-dasharray:none;stroke-opacity:1"
       d="M 244.94106,280.65241 244.5957,197.53129 141.67862,197.24165 Z"
       id="path3-2-4-2" />
    <rect
       style="fill:none;fill-opacity:1;stroke:#0000ff;stroke-width:1;stroke-dasharray:none"
       id="rect1-1"
       width="69.169052"
       height="69.169052"
       x="229.14824"
       y="17.568977" />
    <path
       style="fill:none;fill-opacity:1;stroke:#0000ff;stroke-width:1;stroke-dasharray:none;stroke-opacity:1"
       d="m 249.28253,27.881473 a 3.5414737,3.5414736 0 0 0 -3.54151,3.541512 3.5414737,3.5414736 0 0 0 3.54151,3.541502 3.5414737,3.5414736 0 0 0 3.54151,-3.541502 3.5414737,3.5414736 0 0 0 -3.54151,-3.541512 z"
       id="path10-0" />
    <path
       style="fill:none;fill-opacity:1;stroke:#0000ff;stroke-width:1;stroke-dasharray:none;stroke-opacity:1"
       d="m 278.28253,27.881651 a 3.5413121,3.5413126 0 0 0 -3.54134,3.541338 3.5413121,3.5413126 0 0 0 3.54134,3.541337 3.5413121,3.5413126 0 0 0 3.54134,-3.541337 3.5413121,3.5413126 0 0 0 -3.54134,-3.541338 z"
       id="path10-36-6" />
    <path
       style="fill:none;fill-opacity:1;stroke:#0000ff;stroke-width:1;stroke-dasharray:none;stroke-opacity:1"
       d="m 249.28253,57.981294 a 3.5414762,3.5414761 0 0 0 -3.54151,3.541513 3.5414762,3.5414761 0 0 0 3.54151,3.541505 3.5414762,3.5414761 0 0 0 3.54152,-3.541505 3.5414762,3.5414761 0 0 0 -3.54152,-3.541513 z"
       id="path10-7-1" />
    <path
       style="fill:none;fill-opacity:1;stroke:#0000ff;stroke-width:1;stroke-dasharray:none;stroke-opacity:1"
       d="m 278.28253,57.981829 a 3.5413121,3.5413126 0 0 0 -3.54134,3.541338 3.5413121,3.5413126 0 0 0 3.54134,3.541337 3.5413121,3.5413126 0 0 0 3.54134,-3.541337 3.5413121,3.5413126 0 0 0 -3.54134,-3.541338 z"
       id="path10-36-5-5" />
    <path
       style="fill:none;fill-opacity:1;stroke:#0000ff;stroke-width:1;stroke-dasharray:none;stroke-opacity:1"
       d="m 249.28253,72.981651 a 3.5414737,3.5414736 0 0 0 -3.54151,3.541514 3.5414737,3.5414736 0 0 0 3.54151,3.541497 3.5414737,3.5414736 0 0 0 3.54151,-3.541497 3.5414737,3.5414736 0 0 0 -3.54151,-3.541514 z"
       id="path10-7-9-9" />
    <path
       style="fill:none;fill-opacity:1;stroke:#0000ff;stroke-width:1;stroke-dasharray:none;stroke-opacity:1"
       d="m 278.28253,72.981829 a 3.5413121,3.5413126 0 0 0 -3.54134,3.541336 3.5413121,3.5413126 0 0 0 3.54134,3.541336 3.5413121,3.5413126 0 0 0 3.54134,-3.541336 3.5413121,3.5413126 0 0 0 -3.54134,-3.541336 z"
       id="path10-36-5-7-4" />
    <rect
       style="fill:none;fill-opacity:1;stroke:#0000ff;stroke-width:1;stroke-dasharray:none"
       id="rect1-1-6"
       width="69.169052"
       height="69.169052"
       x="156.41838"
       y="17.427246" />
    <path
       style="fill:none;fill-opacity:1;stroke:#0000ff;stroke-width:1;stroke-dasharray:none;stroke-opacity:1"
       d="m 176.55267,27.739744 a 3.5414737,3.5414736 0 0 0 -3.54151,3.541512 3.5414737,3.5414736 0 0 0 3.54151,3.541502 3.5414737,3.5414736 0 0 0 3.54151,-3.541502 3.5414737,3.5414736 0 0 0 -3.54151,-3.541512 z"
       id="path10-0-1" />
    <path
       style="fill:none;fill-opacity:1;stroke:#0000ff;stroke-width:1;stroke-dasharray:none;stroke-opacity:1"
       d="m 205.55267,27.739922 a 3.5413121,3.5413126 0 0 0 -3.54134,3.541338 3.5413121,3.5413126 0 0 0 3.54134,3.541337 3.5413121,3.5413126 0 0 0 3.54134,-3.541337 3.5413121,3.5413126 0 0 0 -3.54134,-3.541338 z"
       id="path10-36-6-8" />
    <path
       style="fill:none;fill-opacity:1;stroke:#0000ff;stroke-width:1;stroke-dasharray:none;stroke-opacity:1"
       d="m 176.55267,57.839563 a 3.5414762,3.5414761 0 0 0 -3.54151,3.54151 3.5414762,3.5414761 0 0 0 3.54151,3.54151 3.5414762,3.5414761 0 0 0 3.54152,-3.54151 3.5414762,3.5414761 0 0 0 -3.54152,-3.54151 z"
       id="path10-7-1-7" />
    <path
       style="fill:none;fill-opacity:1;stroke:#0000ff;stroke-width:1;stroke-dasharray:none;stroke-opacity:1"
       d="m 205.55267,57.840103 a 3.5413121,3.5413126 0 0 0 -3.54134,3.54133 3.5413121,3.5413126 0 0 0 3.54134,3.54134 3.5413121,3.5413126 0 0 0 3.54134,-3.54134 3.5413121,3.5413126 0 0 0 -3.54134,-3.54133 z"
       id="path10-36-5-5-9" />
    <path
       style="fill:none;fill-opacity:1;stroke:#0000ff;stroke-width:1;stroke-dasharray:none;stroke-opacity:1"
       d="m 176.55267,72.839923 a 3.5414737,3.5414736 0 0 0 -3.54151,3.54151 3.5414737,3.5414736 0 0 0 3.54151,3.5415 3.5414737,3.5414736 0 0 0 3.54151,-3.5415 3.5414737,3.5414736 0 0 0 -3.54151,-3.54151 z"
       id="path10-7-9-9-2" />
    <path
       style="fill:none;fill-opacity:1;stroke:#0000ff;stroke-width:1;stroke-dasharray:none;stroke-opacity:1"
       d="m 205.55267,72.840103 a 3.5413121,3.5413126 0 0 0 -3.54134,3.54133 3.5413121,3.5413126 0 0 0 3.54134,3.54134 3.5413121,3.5413126 0 0 0 3.54134,-3.54134 3.5413121,3.5413126 0 0 0 -3.54134,-3.54133 z"
       id="path10-36-5-7-4-0" />
    <path
       style="fill:none;fill-opacity:1;stroke:#0000ff;stroke-width:1;stroke-dasharray:none;stroke-opacity:1"
       d="m 317.08506,8.6964858 0.42859,83.4982202 127.71916,0.29095 z"
       id="path3-9" />
    <path
       style="fill:none;fill-opacity:1;stroke:#0000ff;stroke-width:1;stroke-dasharray:none;stroke-opacity:1"
       d="m 330.00578,30.600376 a 3.4507272,3.4507276 0 0 0 -3.45052,3.45094 3.4507272,3.4507276 0 0 0 3.45052,3.45094 3.4507272,3.4507276 0 0 0 3.45094,-3.45094 3.4507272,3.4507276 0 0 0 -3.45094,-3.45094 z"
       id="path10-18-1" />
    <path
       style="fill:none;fill-opacity:1;stroke:#0000ff;stroke-width:1;stroke-dasharray:none;stroke-opacity:1"
       d="m 330.00556,45.600146 a 3.4507272,3.4507276 0 0 0 -3.45053,3.45094 3.4507272,3.4507276 0 0 0 3.45053,3.45094 3.4507272,3.4507276 0 0 0 3.45094,-3.45094 3.4507272,3.4507276 0 0 0 -3.45094,-3.45094 z"
       id="path10-18-3-2" />
    <path
       style="fill:none;fill-opacity:1;stroke:#0000ff;stroke-width:1;stroke-dasharray:none;stroke-opacity:1"
       d="m 330.00578,126.22838 a 3.4507272,3.4507276 0 0 0 -3.45052,3.45094 3.4507272,3.4507276 0 0 0 3.45052,3.45094 3.4507272,3.4507276 0 0 0 3.45094,-3.45094 3.4507272,3.4507276 0 0 0 -3.45094,-3.45094 z"
       id="path10-18-6-7" />
    <path
       style="fill:none;fill-opacity:1;stroke:#0000ff;stroke-width:1;stroke-dasharray:none;stroke-opacity:1"
       d="m 330.00556,141.22815 a 3.4507272,3.4507276 0 0 0 -3.45053,3.45094 3.4507272,3.4507276 0 0 0 3.45053,3.45094 3.4507272,3.4507276 0 0 0 3.45094,-3.45094 3.4507272,3.4507276 0 0 0 -3.45094,-3.45094 z"
       id="path10-18-3-18-0" />
    <path
       style="fill:none;fill-opacity:1;stroke:#0000ff;stroke-width:1;stroke-dasharray:none;stroke-opacity:1"
       d="m 400.50856,75.603376 a 3.4507272,3.4507276 0 0 0 -3.45053,3.45094 3.4507272,3.4507276 0 0 0 3.45053,3.45094 3.4507272,3.4507276 0 0 0 3.45094,-3.45094 3.4507272,3.4507276 0 0 0 -3.45094,-3.45094 z"
       id="path10-18-3-1-9" />
    <path
       style="fill:none;fill-opacity:1;stroke:#0000ff;stroke-width:1;stroke-dasharray:none;stroke-opacity:1"
       d="m 385.50856,75.603376 a 3.4507272,3.4507276 0 0 0 -3.45053,3.45094 3.4507272,3.4507276 0 0 0 3.45053,3.45094 3.4507272,3.4507276 0 0 0 3.45094,-3.45094 3.4507272,3.4507276 0 0 0 -3.45094,-3.45094 z"
       id="path10-18-3-1-3-36" />
    <path
       style="fill:none;fill-opacity:1;stroke:#0000ff;stroke-width:1;stroke-dasharray:none;stroke-opacity:1"
       d="M 452.365,92.250556 451.93642,8.7523358 324.21726,8.4613858 Z"
       id="path3-28-0" />
    <path
       style="fill:none;fill-opacity:1;stroke:#0000ff;stroke-width:1;stroke-dasharray:none;stroke-opacity:1"
       d="m 439.44428,70.346666 a 3.4507272,3.4507276 0 0 0 3.45053,-3.45094 3.4507272,3.4507276 0 0 0 -3.45053,-3.45093 3.4507272,3.4507276 0 0 0 -3.45094,3.45093 3.4507272,3.4507276 0 0 0 3.45094,3.45094 z"
       id="path10-18-9-6" />
    <path
       style="fill:none;fill-opacity:1;stroke:#0000ff;stroke-width:1;stroke-dasharray:none;stroke-opacity:1"
       d="m 439.44451,55.346896 a 3.4507272,3.4507276 0 0 0 3.45053,-3.45094 3.4507272,3.4507276 0 0 0 -3.45053,-3.45094 3.4507272,3.4507276 0 0 0 -3.45094,3.45094 3.4507272,3.4507276 0 0 0 3.45094,3.45094 z"
       id="path10-18-3-7-2" />
    <path
       style="fill:none;fill-opacity:1;stroke:#0000ff;stroke-width:1;stroke-dasharray:none;stroke-opacity:1"
       d="m 368.94151,25.343656 a 3.4507272,3.4507276 0 0 0 3.45053,-3.45093 3.4507272,3.4507276 0 0 0 -3.45053,-3.45093 3.4507272,3.4507276 0 0 0 -3.45094,3.45093 3.4507272,3.4507276 0 0 0 3.45094,3.45093 z"
       id="path10-18-3-1-36-6" />
    <path
       style="fill:none;fill-opacity:1;stroke:#0000ff;stroke-width:1;stroke-dasharray:none;stroke-opacity:1"
       d="m 383.94151,25.343656 a 3.4507272,3.4507276 0 0 0 3.45053,-3.45093 3.4507272,3.4507276 0 0 0 -3.45053,-3.45093 3.4507272,3.4507276 0 0 0 -3.45094,3.45093 3.4507272,3.4507276 0 0 0 3.45094,3.45093 z"
       id="path10-18-3-1-3-1-18" />
    <path
       style="fill:none;fill-opacity:1;stroke:#0000ff;stroke-width:1;stroke-dasharray:none;stroke-opacity:1"
       d="m 385.30856,170.50338 a 3.4507272,3.4507276 0 0 0 -3.45053,3.45094 3.4507272,3.4507276 0 0 0 3.45053,3.45094 3.4507272,3.4507276 0 0 0 3.45094,-3.45094 3.4507272,3.4507276 0 0 0 -3.45094,-3.45094 z"
       id="path10-18-3-1-2-79" />
    <path
       style="fill:none;fill-opacity:1;stroke:#0000ff;stroke-width:1;stroke-dasharray:none;stroke-opacity:1"
       d="m 370.30856,170.50338 a 3.4507272,3.4507276 0 0 0 -3.45053,3.45094 3.4507272,3.4507276 0 0 0 3.45053,3.45094 3.4507272,3.4507276 0 0 0 3.45094,-3.45094 3.4507272,3.4507276 0 0 0 -3.45094,-3.45094 z"
       id="path10-18-3-1-3-3-2" />
    <path
       style="fill:none;fill-opacity:1;stroke:#0000ff;stroke-width:0.928074;stroke-dasharray:none;stroke-opacity:1"
       d="m 317.12585,103.87799 0.34536,83.12113 102.91708,0.28964 z"
       id="path3-2-0" />
    <path
       style="fill:none;fill-opacity:1;stroke:#0000ff;stroke-width:1;stroke-dasharray:none;stroke-opacity:1"
       d="m 413.17475,164.73566 a 3.4507272,3.4507276 0 0 0 3.45053,-3.45094 3.4507272,3.4507276 0 0 0 -3.45053,-3.45094 3.4507272,3.4507276 0 0 0 -3.45093,3.45094 3.4507272,3.4507276 0 0 0 3.45093,3.45094 z"
       id="path10-18-6-9-2" />
    <path
       style="fill:none;fill-opacity:1;stroke:#0000ff;stroke-width:1;stroke-dasharray:none;stroke-opacity:1"
       d="m 413.17498,149.73589 a 3.4507272,3.4507276 0 0 0 3.45053,-3.45093 3.4507272,3.4507276 0 0 0 -3.45053,-3.45094 3.4507272,3.4507276 0 0 0 -3.45094,3.45094 3.4507272,3.4507276 0 0 0 3.45094,3.45093 z"
       id="path10-18-3-18-4-3" />
    <path
       style="fill:none;fill-opacity:1;stroke:#0000ff;stroke-width:1;stroke-dasharray:none;stroke-opacity:1"
       d="m 357.87198,120.46067 a 3.4507272,3.4507276 0 0 0 3.45053,-3.45094 3.4507272,3.4507276 0 0 0 -3.45053,-3.45094 3.4507272,3.4507276 0 0 0 -3.45094,3.45094 3.4507272,3.4507276 0 0 0 3.45094,3.45094 z"
       id="path10-18-3-1-2-7-7" />
    <path
       style="fill:none;fill-opacity:1;stroke:#0000ff;stroke-width:1;stroke-dasharray:none;stroke-opacity:1"
       d="m 372.87198,120.46067 a 3.4507272,3.4507276 0 0 0 3.45052,-3.45094 3.4507272,3.4507276 0 0 0 -3.45052,-3.45094 3.4507272,3.4507276 0 0 0 -3.45094,3.45094 3.4507272,3.4507276 0 0 0 3.45094,3.45094 z"
       id="path10-18-3-1-3-3-8-5" />
    <path
       style="fill:none;fill-opacity:1;stroke:#0000ff;stroke-width:0.928074;stroke-dasharray:none;stroke-opacity:1"
       d="m 426.05469,187.08605 -0.34536,-83.12112 -102.91708,-0.28964 z"
       id="path3-2-4-9" />
    <path
       style="fill:none;fill-opacity:1;stroke:#0000ff;stroke-width:1;stroke-dasharray:none;stroke-opacity:1"
       d="m 442.62946,100.16623 0.42859,83.49822 127.71916,0.29095 z"
       id="path3-4-2" />
    <path
       style="fill:none;fill-opacity:1;stroke:#0000ff;stroke-width:1;stroke-dasharray:none;stroke-opacity:1"
       d="m 455.55018,122.07012 a 3.4507272,3.4507276 0 0 0 -3.45052,3.45094 3.4507272,3.4507276 0 0 0 3.45052,3.45094 3.4507272,3.4507276 0 0 0 3.45094,-3.45094 3.4507272,3.4507276 0 0 0 -3.45094,-3.45094 z"
       id="path10-18-4-2" />
    <path
       style="fill:none;fill-opacity:1;stroke:#0000ff;stroke-width:1;stroke-dasharray:none;stroke-opacity:1"
       d="m 455.54996,137.0699 a 3.4507272,3.4507276 0 0 0 -3.45053,3.45094 3.4507272,3.4507276 0 0 0 3.45053,3.45093 3.4507272,3.4507276 0 0 0 3.45094,-3.45093 3.4507272,3.4507276 0 0 0 -3.45094,-3.45094 z"
       id="path10-18-3-3-8" />
    <path
       style="fill:none;fill-opacity:1;stroke:#0000ff;stroke-width:1;stroke-dasharray:none;stroke-opacity:1"
       d="m 455.55018,217.69812 a 3.4507272,3.4507276 0 0 0 -3.45052,3.45094 3.4507272,3.4507276 0 0 0 3.45052,3.45094 3.4507272,3.4507276 0 0 0 3.45094,-3.45094 3.4507272,3.4507276 0 0 0 -3.45094,-3.45094 z"
       id="path10-18-6-0-9" />
    <path
       style="fill:none;fill-opacity:1;stroke:#0000ff;stroke-width:1;stroke-dasharray:none;stroke-opacity:1"
       d="m 455.54996,232.69789 a 3.4507272,3.4507276 0 0 0 -3.45053,3.45094 3.4507272,3.4507276 0 0 0 3.45053,3.45094 3.4507272,3.4507276 0 0 0 3.45094,-3.45094 3.4507272,3.4507276 0 0 0 -3.45094,-3.45094 z"
       id="path10-18-3-18-7-7" />
    <path
       style="fill:none;fill-opacity:1;stroke:#0000ff;stroke-width:1;stroke-dasharray:none;stroke-opacity:1"
       d="m 526.05296,167.07312 a 3.4507272,3.4507276 0 0 0 -3.45053,3.45094 3.4507272,3.4507276 0 0 0 3.45053,3.45094 3.4507272,3.4507276 0 0 0 3.45094,-3.45094 3.4507272,3.4507276 0 0 0 -3.45094,-3.45094 z"
       id="path10-18-3-1-8-3" />
    <path
       style="fill:none;fill-opacity:1;stroke:#0000ff;stroke-width:1;stroke-dasharray:none;stroke-opacity:1"
       d="m 511.05296,167.07312 a 3.4507272,3.4507276 0 0 0 -3.45053,3.45094 3.4507272,3.4507276 0 0 0 3.45053,3.45094 3.4507272,3.4507276 0 0 0 3.45094,-3.45094 3.4507272,3.4507276 0 0 0 -3.45094,-3.45094 z"
       id="path10-18-3-1-3-6-6" />
    <path
       style="fill:none;fill-opacity:1;stroke:#0000ff;stroke-width:1;stroke-dasharray:none;stroke-opacity:1"
       d="M 577.9094,183.7203 577.48082,100.22208 449.76166,99.931126 Z"
       id="path3-28-8-1" />
    <path
       style="fill:none;fill-opacity:1;stroke:#0000ff;stroke-width:1;stroke-dasharray:none;stroke-opacity:1"
       d="m 564.98868,161.81641 a 3.4507272,3.4507276 0 0 0 3.45053,-3.45094 3.4507272,3.4507276 0 0 0 -3.45053,-3.45093 3.4507272,3.4507276 0 0 0 -3.45094,3.45093 3.4507272,3.4507276 0 0 0 3.45094,3.45094 z"
       id="path10-18-9-8-2" />
    <path
       style="fill:none;fill-opacity:1;stroke:#0000ff;stroke-width:1;stroke-dasharray:none;stroke-opacity:1"
       d="m 564.98891,146.81664 a 3.4507272,3.4507276 0 0 0 3.45053,-3.45094 3.4507272,3.4507276 0 0 0 -3.45053,-3.45094 3.4507272,3.4507276 0 0 0 -3.45094,3.45094 3.4507272,3.4507276 0 0 0 3.45094,3.45094 z"
       id="path10-18-3-7-4-9" />
    <path
       style="fill:none;fill-opacity:1;stroke:#0000ff;stroke-width:1;stroke-dasharray:none;stroke-opacity:1"
       d="m 494.48591,116.81341 a 3.4507272,3.4507276 0 0 0 3.45053,-3.45093 3.4507272,3.4507276 0 0 0 -3.45053,-3.45094 3.4507272,3.4507276 0 0 0 -3.45094,3.45094 3.4507272,3.4507276 0 0 0 3.45094,3.45093 z"
       id="path10-18-3-1-36-3-3" />
    <path
       style="fill:none;fill-opacity:1;stroke:#0000ff;stroke-width:1;stroke-dasharray:none;stroke-opacity:1"
       d="m 509.48592,116.81341 a 3.4507272,3.4507276 0 0 0 3.45052,-3.45093 3.4507272,3.4507276 0 0 0 -3.45052,-3.45094 3.4507272,3.4507276 0 0 0 -3.45095,3.45094 3.4507272,3.4507276 0 0 0 3.45095,3.45093 z"
       id="path10-18-3-1-3-1-1-1" />
    <path
       style="fill:none;fill-opacity:1;stroke:#0000ff;stroke-width:1;stroke-dasharray:none;stroke-opacity:1"
       d="m 510.85296,261.97312 a 3.4507272,3.4507276 0 0 0 -3.45053,3.45094 3.4507272,3.4507276 0 0 0 3.45053,3.45094 3.4507272,3.4507276 0 0 0 3.45094,-3.45094 3.4507272,3.4507276 0 0 0 -3.45094,-3.45094 z"
       id="path10-18-3-1-2-4-9" />
    <path
       style="fill:none;fill-opacity:1;stroke:#0000ff;stroke-width:1;stroke-dasharray:none;stroke-opacity:1"
       d="m 495.85296,261.97312 a 3.4507272,3.4507276 0 0 0 -3.45053,3.45094 3.4507272,3.4507276 0 0 0 3.45053,3.45094 3.4507272,3.4507276 0 0 0 3.45094,-3.45094 3.4507272,3.4507276 0 0 0 -3.45094,-3.45094 z"
       id="path10-18-3-1-3-3-9-4" />
    <path
       style="fill:none;fill-opacity:1;stroke:#0000ff;stroke-width:0.928074;stroke-dasharray:none;stroke-opacity:1"
       d="m 442.67025,195.34773 0.34536,83.12113 102.91708,0.28964 z"
       id="path3-2-2-7" />
    <path
       style="fill:none;fill-opacity:1;stroke:#0000ff;stroke-width:1;stroke-dasharray:none;stroke-opacity:1"
       d="m 538.71915,256.2054 a 3.4507272,3.4507276 0 0 0 3.45053,-3.45094 3.4507272,3.4507276 0 0 0 -3.45053,-3.45094 3.4507272,3.4507276 0 0 0 -3.45093,3.45094 3.4507272,3.4507276 0 0 0 3.45093,3.45094 z"
       id="path10-18-6-9-0-8" />
    <path
       style="fill:none;fill-opacity:1;stroke:#0000ff;stroke-width:1;stroke-dasharray:none;stroke-opacity:1"
       d="m 538.71938,241.20563 a 3.4507272,3.4507276 0 0 0 3.45053,-3.45093 3.4507272,3.4507276 0 0 0 -3.45053,-3.45094 3.4507272,3.4507276 0 0 0 -3.45094,3.45094 3.4507272,3.4507276 0 0 0 3.45094,3.45093 z"
       id="path10-18-3-18-4-6-4" />
    <path
       style="fill:none;fill-opacity:1;stroke:#0000ff;stroke-width:1;stroke-dasharray:none;stroke-opacity:1"
       d="m 483.41638,211.93041 a 3.4507272,3.4507276 0 0 0 3.45053,-3.45094 3.4507272,3.4507276 0 0 0 -3.45053,-3.45094 3.4507272,3.4507276 0 0 0 -3.45094,3.45094 3.4507272,3.4507276 0 0 0 3.45094,3.45094 z"
       id="path10-18-3-1-2-7-8-5" />
    <path
       style="fill:none;fill-opacity:1;stroke:#0000ff;stroke-width:1;stroke-dasharray:none;stroke-opacity:1"
       d="m 498.41638,211.93041 a 3.4507272,3.4507276 0 0 0 3.45052,-3.45094 3.4507272,3.4507276 0 0 0 -3.45052,-3.45094 3.4507272,3.4507276 0 0 0 -3.45094,3.45094 3.4507272,3.4507276 0 0 0 3.45094,3.45094 z"
       id="path10-18-3-1-3-3-8-9-0" />
    <path
       style="fill:none;fill-opacity:1;stroke:#0000ff;stroke-width:0.928074;stroke-dasharray:none;stroke-opacity:1"
       d="m 551.59909,278.55579 -0.34536,-83.12112 -102.91708,-0.28964 z"
       id="path3-2-4-2-3" />
    <rect
       style="fill:none;fill-opacity:1;stroke:#0000ff;stroke-width:1;stroke-dasharray:none"
       id="rect1-1-61"
       width="69.169052"
       height="69.169052"
       x="535.80627"
       y="15.47236" />
    <path
       style="fill:none;fill-opacity:1;stroke:#0000ff;stroke-width:1;stroke-dasharray:none;stroke-opacity:1"
       d="m 555.94056,25.784846 a 3.5414737,3.5414736 0 0 0 -3.54151,3.54151 3.5414737,3.5414736 0 0 0 3.54151,3.54151 3.5414737,3.5414736 0 0 0 3.54151,-3.54151 3.5414737,3.5414736 0 0 0 -3.54151,-3.54151 z"
       id="path10-0-0" />
    <path
       style="fill:none;fill-opacity:1;stroke:#0000ff;stroke-width:1;stroke-dasharray:none;stroke-opacity:1"
       d="m 584.94056,25.785026 a 3.5413121,3.5413126 0 0 0 -3.54134,3.54134 3.5413121,3.5413126 0 0 0 3.54134,3.54134 3.5413121,3.5413126 0 0 0 3.54134,-3.54134 3.5413121,3.5413126 0 0 0 -3.54134,-3.54134 z"
       id="path10-36-6-6" />
    <path
       style="fill:none;fill-opacity:1;stroke:#0000ff;stroke-width:1;stroke-dasharray:none;stroke-opacity:1"
       d="m 555.94056,55.884666 a 3.5414762,3.5414761 0 0 0 -3.54151,3.54152 3.5414762,3.5414761 0 0 0 3.54151,3.5415 3.5414762,3.5414761 0 0 0 3.54152,-3.5415 3.5414762,3.5414761 0 0 0 -3.54152,-3.54152 z"
       id="path10-7-1-3" />
    <path
       style="fill:none;fill-opacity:1;stroke:#0000ff;stroke-width:1;stroke-dasharray:none;stroke-opacity:1"
       d="m 584.94056,55.885206 a 3.5413121,3.5413126 0 0 0 -3.54134,3.54134 3.5413121,3.5413126 0 0 0 3.54134,3.54133 3.5413121,3.5413126 0 0 0 3.54134,-3.54133 3.5413121,3.5413126 0 0 0 -3.54134,-3.54134 z"
       id="path10-36-5-5-2" />
    <path
       style="fill:none;fill-opacity:1;stroke:#0000ff;stroke-width:1;stroke-dasharray:none;stroke-opacity:1"
       d="m 555.94056,70.885026 a 3.5414737,3.5414736 0 0 0 -3.54151,3.54151 3.5414737,3.5414736 0 0 0 3.54151,3.5415 3.5414737,3.5414736 0 0 0 3.54151,-3.5415 3.5414737,3.5414736 0 0 0 -3.54151,-3.54151 z"
       id="path10-7-9-9-0" />
    <path
       style="fill:none;fill-opacity:1;stroke:#0000ff;stroke-width:1;stroke-dasharray:none;stroke-opacity:1"
       d="m 584.94056,70.885206 a 3.5413121,3.5413126 0 0 0 -3.54134,3.54133 3.5413121,3.5413126 0 0 0 3.54134,3.54134 3.5413121,3.5413126 0 0 0 3.54134,-3.54134 3.5413121,3.5413126 0 0 0 -3.54134,-3.54133 z"
       id="path10-36-5-7-4-6" />
    <rect
       style="fill:none;fill-opacity:1;stroke:#0000ff;stroke-width:0.705631;stroke-dasharray:none"
       id="rect1-1-61-8"
       width="34.294369"
       height="69.463425"
       x="46.651356"
       y="204.24487" />
    <path
       style="fill:none;fill-opacity:1;stroke:#0000ff;stroke-width:1;stroke-dasharray:none;stroke-opacity:1"
       d="m 64.63234,214.70471 a 3.5413121,3.5413126 0 0 0 -3.54134,3.54134 3.5413121,3.5413126 0 0 0 3.54134,3.54134 3.5413121,3.5413126 0 0 0 3.54134,-3.54134 3.5413121,3.5413126 0 0 0 -3.54134,-3.54134 z"
       id="path10-36-6-6-8" />
    <path
       style="fill:none;fill-opacity:1;stroke:#0000ff;stroke-width:1;stroke-dasharray:none;stroke-opacity:1"
       d="m 64.63234,244.80489 a 3.5413121,3.5413126 0 0 0 -3.54134,3.54134 3.5413121,3.5413126 0 0 0 3.54134,3.54133 3.5413121,3.5413126 0 0 0 3.54134,-3.54133 3.5413121,3.5413126 0 0 0 -3.54134,-3.54134 z"
       id="path10-36-5-5-2-4" />
    <path
       style="fill:none;fill-opacity:1;stroke:#0000ff;stroke-width:1;stroke-dasharray:none;stroke-opacity:1"
       d="m 64.63234,259.80489 a 3.5413121,3.5413126 0 0 0 -3.54134,3.54133 3.5413121,3.5413126 0 0 0 3.54134,3.54134 3.5413121,3.5413126 0 0 0 3.54134,-3.54134 3.5413121,3.5413126 0 0 0 -3.54134,-3.54133 z"
       id="path10-36-5-7-4-6-1" />
    <rect
       style="fill:none;fill-opacity:1;stroke:#0000ff;stroke-width:0.705631;stroke-dasharray:none"
       id="rect1-1-61-8-6"
       width="34.294369"
       height="69.463425"
       x="352.24866"
       y="204.34656" />
    <path
       style="fill:none;fill-opacity:1;stroke:#0000ff;stroke-width:1;stroke-dasharray:none;stroke-opacity:1"
       d="m 370.22963,214.8064 a 3.5413121,3.5413126 0 0 0 -3.54134,3.54134 3.5413121,3.5413126 0 0 0 3.54134,3.54134 3.5413121,3.5413126 0 0 0 3.54134,-3.54134 3.5413121,3.5413126 0 0 0 -3.54134,-3.54134 z"
       id="path10-36-6-6-8-8" />
    <path
       style="fill:none;fill-opacity:1;stroke:#0000ff;stroke-width:1;stroke-dasharray:none;stroke-opacity:1"
       d="m 370.22963,244.90658 a 3.5413121,3.5413126 0 0 0 -3.54134,3.54134 3.5413121,3.5413126 0 0 0 3.54134,3.54133 3.5413121,3.5413126 0 0 0 3.54134,-3.54133 3.5413121,3.5413126 0 0 0 -3.54134,-3.54134 z"
       id="path10-36-5-5-2-4-9" />
    <path
       style="fill:none;fill-opacity:1;stroke:#0000ff;stroke-width:1;stroke-dasharray:none;stroke-opacity:1"
       d="m 370.22963,259.90658 a 3.5413121,3.5413126 0 0 0 -3.54134,3.54133 3.5413121,3.5413126 0 0 0 3.54134,3.54134 3.5413121,3.5413126 0 0 0 3.54134,-3.54134 3.5413121,3.5413126 0 0 0 -3.54134,-3.54133 z"
       id="path10-36-5-7-4-6-1-2" />
    <rect
       style="fill:none;fill-opacity:1;stroke:#0000ff;stroke-width:1;stroke-dasharray:none"
       id="rect1-1-6-1"
       width="69.169052"
       height="69.169052"
       x="463.07642"
       y="15.330613" />
    <path
       style="fill:none;fill-opacity:1;stroke:#0000ff;stroke-width:1;stroke-dasharray:none;stroke-opacity:1"
       d="m 483.2107,25.643116 a 3.5414737,3.5414736 0 0 0 -3.54151,3.54152 3.5414737,3.5414736 0 0 0 3.54151,3.5415 3.5414737,3.5414736 0 0 0 3.54151,-3.5415 3.5414737,3.5414736 0 0 0 -3.54151,-3.54152 z"
       id="path10-0-1-5" />
    <path
       style="fill:none;fill-opacity:1;stroke:#0000ff;stroke-width:1;stroke-dasharray:none;stroke-opacity:1"
       d="m 512.2107,25.643296 a 3.5413121,3.5413126 0 0 0 -3.54134,3.54134 3.5413121,3.5413126 0 0 0 3.54134,3.54134 3.5413121,3.5413126 0 0 0 3.54134,-3.54134 3.5413121,3.5413126 0 0 0 -3.54134,-3.54134 z"
       id="path10-36-6-8-5" />
    <path
       style="fill:none;fill-opacity:1;stroke:#0000ff;stroke-width:1;stroke-dasharray:none;stroke-opacity:1"
       d="m 483.2107,55.742936 a 3.5414762,3.5414761 0 0 0 -3.54151,3.54151 3.5414762,3.5414761 0 0 0 3.54151,3.54151 3.5414762,3.5414761 0 0 0 3.54152,-3.54151 3.5414762,3.5414761 0 0 0 -3.54152,-3.54151 z"
       id="path10-7-1-7-4" />
    <path
       style="fill:none;fill-opacity:1;stroke:#0000ff;stroke-width:1;stroke-dasharray:none;stroke-opacity:1"
       d="m 512.2107,55.743476 a 3.5413121,3.5413126 0 0 0 -3.54134,3.54133 3.5413121,3.5413126 0 0 0 3.54134,3.54134 3.5413121,3.5413126 0 0 0 3.54134,-3.54134 3.5413121,3.5413126 0 0 0 -3.54134,-3.54133 z"
       id="path10-36-5-5-9-7" />
    <path
       style="fill:none;fill-opacity:1;stroke:#0000ff;stroke-width:1;stroke-dasharray:none;stroke-opacity:1"
       d="m 483.2107,70.743296 a 3.5414737,3.5414736 0 0 0 -3.54151,3.54151 3.5414737,3.5414736 0 0 0 3.54151,3.5415 3.5414737,3.5414736 0 0 0 3.54151,-3.5415 3.5414737,3.5414736 0 0 0 -3.54151,-3.54151 z"
       id="path10-7-9-9-2-6" />
    <path
       style="fill:none;fill-opacity:1;stroke:#0000ff;stroke-width:1;stroke-dasharray:none;stroke-opacity:1"
       d="m 512.2107,70.743476 a 3.5413121,3.5413126 0 0 0 -3.54134,3.54133 3.5413121,3.5413126 0 0 0 3.54134,3.54134 3.5413121,3.5413126 0 0 0 3.54134,-3.54134 3.5413121,3.5413126 0 0 0 -3.54134,-3.54133 z"
       id="path10-36-5-7-4-0-5" />
    <path
       style="fill:none;fill-opacity:1;stroke:#0000ff;stroke-width:1;stroke-dasharray:none;stroke-opacity:1"
       d="m 18.431226,292.00713 0.42859,83.49822 127.719164,0.29095 z"
       id="path3-5" />
    <path
       style="fill:none;fill-opacity:1;stroke:#0000ff;stroke-width:1;stroke-dasharray:none;stroke-opacity:1"
       d="m 31.351946,313.91102 a 3.4507272,3.4507276 0 0 0 -3.45052,3.45094 3.4507272,3.4507276 0 0 0 3.45052,3.45094 3.4507272,3.4507276 0 0 0 3.45094,-3.45094 3.4507272,3.4507276 0 0 0 -3.45094,-3.45094 z"
       id="path10-18-0" />
    <path
       style="fill:none;fill-opacity:1;stroke:#0000ff;stroke-width:1;stroke-dasharray:none;stroke-opacity:1"
       d="m 31.351726,328.91079 a 3.4507272,3.4507276 0 0 0 -3.45053,3.45094 3.4507272,3.4507276 0 0 0 3.45053,3.45094 3.4507272,3.4507276 0 0 0 3.45094,-3.45094 3.4507272,3.4507276 0 0 0 -3.45094,-3.45094 z"
       id="path10-18-3-4" />
    <path
       style="fill:none;fill-opacity:1;stroke:#0000ff;stroke-width:1;stroke-dasharray:none;stroke-opacity:1"
       d="m 31.351946,409.53902 a 3.4507272,3.4507276 0 0 0 -3.45052,3.45094 3.4507272,3.4507276 0 0 0 3.45052,3.45094 3.4507272,3.4507276 0 0 0 3.45094,-3.45094 3.4507272,3.4507276 0 0 0 -3.45094,-3.45094 z"
       id="path10-18-6-8" />
    <path
       style="fill:none;fill-opacity:1;stroke:#0000ff;stroke-width:1;stroke-dasharray:none;stroke-opacity:1"
       d="m 31.351726,424.53879 a 3.4507272,3.4507276 0 0 0 -3.45053,3.45094 3.4507272,3.4507276 0 0 0 3.45053,3.45094 3.4507272,3.4507276 0 0 0 3.45094,-3.45094 3.4507272,3.4507276 0 0 0 -3.45094,-3.45094 z"
       id="path10-18-3-18-71" />
    <path
       style="fill:none;fill-opacity:1;stroke:#0000ff;stroke-width:1;stroke-dasharray:none;stroke-opacity:1"
       d="m 101.85473,358.91402 a 3.4507272,3.4507276 0 0 0 -3.450534,3.45094 3.4507272,3.4507276 0 0 0 3.450534,3.45094 3.4507272,3.4507276 0 0 0 3.45094,-3.45094 3.4507272,3.4507276 0 0 0 -3.45094,-3.45094 z"
       id="path10-18-3-1-7" />
    <path
       style="fill:none;fill-opacity:1;stroke:#0000ff;stroke-width:1;stroke-dasharray:none;stroke-opacity:1"
       d="m 86.854726,358.91402 a 3.4507272,3.4507276 0 0 0 -3.45053,3.45094 3.4507272,3.4507276 0 0 0 3.45053,3.45094 3.4507272,3.4507276 0 0 0 3.45094,-3.45094 3.4507272,3.4507276 0 0 0 -3.45094,-3.45094 z"
       id="path10-18-3-1-3-2" />
    <path
       style="fill:none;fill-opacity:1;stroke:#0000ff;stroke-width:1;stroke-dasharray:none;stroke-opacity:1"
       d="M 153.71117,375.5612 153.28259,292.06297 25.563426,291.77202 Z"
       id="path3-28-7" />
    <path
       style="fill:none;fill-opacity:1;stroke:#0000ff;stroke-width:1;stroke-dasharray:none;stroke-opacity:1"
       d="m 140.79045,353.65731 a 3.4507272,3.4507276 0 0 0 3.45053,-3.45094 3.4507272,3.4507276 0 0 0 -3.45053,-3.45093 3.4507272,3.4507276 0 0 0 -3.45094,3.45093 3.4507272,3.4507276 0 0 0 3.45094,3.45094 z"
       id="path10-18-9-2" />
    <path
       style="fill:none;fill-opacity:1;stroke:#0000ff;stroke-width:1;stroke-dasharray:none;stroke-opacity:1"
       d="m 140.79068,338.65754 a 3.4507272,3.4507276 0 0 0 3.45053,-3.45094 3.4507272,3.4507276 0 0 0 -3.45053,-3.45094 3.4507272,3.4507276 0 0 0 -3.45094,3.45094 3.4507272,3.4507276 0 0 0 3.45094,3.45094 z"
       id="path10-18-3-7-26" />
    <path
       style="fill:none;fill-opacity:1;stroke:#0000ff;stroke-width:1;stroke-dasharray:none;stroke-opacity:1"
       d="m 70.287676,308.6543 a 3.4507272,3.4507276 0 0 0 3.45053,-3.45093 3.4507272,3.4507276 0 0 0 -3.45053,-3.45094 3.4507272,3.4507276 0 0 0 -3.45094,3.45094 3.4507272,3.4507276 0 0 0 3.45094,3.45093 z"
       id="path10-18-3-1-36-1" />
    <path
       style="fill:none;fill-opacity:1;stroke:#0000ff;stroke-width:1;stroke-dasharray:none;stroke-opacity:1"
       d="m 85.287676,308.6543 a 3.4507272,3.4507276 0 0 0 3.45053,-3.45093 3.4507272,3.4507276 0 0 0 -3.45053,-3.45094 3.4507272,3.4507276 0 0 0 -3.45094,3.45094 3.4507272,3.4507276 0 0 0 3.45094,3.45093 z"
       id="path10-18-3-1-3-1-0" />
    <path
       style="fill:none;fill-opacity:1;stroke:#0000ff;stroke-width:1;stroke-dasharray:none;stroke-opacity:1"
       d="m 86.654726,453.81402 a 3.4507272,3.4507276 0 0 0 -3.45053,3.45094 3.4507272,3.4507276 0 0 0 3.45053,3.45094 3.4507272,3.4507276 0 0 0 3.45094,-3.45094 3.4507272,3.4507276 0 0 0 -3.45094,-3.45094 z"
       id="path10-18-3-1-2-6" />
    <path
       style="fill:none;fill-opacity:1;stroke:#0000ff;stroke-width:1;stroke-dasharray:none;stroke-opacity:1"
       d="m 71.654726,453.81402 a 3.4507272,3.4507276 0 0 0 -3.45053,3.45094 3.4507272,3.4507276 0 0 0 3.45053,3.45094 3.4507272,3.4507276 0 0 0 3.45094,-3.45094 3.4507272,3.4507276 0 0 0 -3.45094,-3.45094 z"
       id="path10-18-3-1-3-3-1" />
    <path
       style="fill:none;fill-opacity:1;stroke:#0000ff;stroke-width:0.928074;stroke-dasharray:none;stroke-opacity:1"
       d="m 18.472016,387.18863 0.34536,83.12113 102.917084,0.28964 z"
       id="path3-2-5" />
    <path
       style="fill:none;fill-opacity:1;stroke:#0000ff;stroke-width:1;stroke-dasharray:none;stroke-opacity:1"
       d="m 114.52092,448.0463 a 3.4507272,3.4507276 0 0 0 3.45053,-3.45094 3.4507272,3.4507276 0 0 0 -3.45053,-3.45094 3.4507272,3.4507276 0 0 0 -3.45093,3.45094 3.4507272,3.4507276 0 0 0 3.45093,3.45094 z"
       id="path10-18-6-9-9" />
    <path
       style="fill:none;fill-opacity:1;stroke:#0000ff;stroke-width:1;stroke-dasharray:none;stroke-opacity:1"
       d="m 114.52115,433.04653 a 3.4507272,3.4507276 0 0 0 3.45053,-3.45093 3.4507272,3.4507276 0 0 0 -3.45053,-3.45094 3.4507272,3.4507276 0 0 0 -3.45094,3.45094 3.4507272,3.4507276 0 0 0 3.45094,3.45093 z"
       id="path10-18-3-18-4-4" />
    <path
       style="fill:none;fill-opacity:1;stroke:#0000ff;stroke-width:1;stroke-dasharray:none;stroke-opacity:1"
       d="m 59.218146,403.77131 a 3.4507272,3.4507276 0 0 0 3.45053,-3.45094 3.4507272,3.4507276 0 0 0 -3.45053,-3.45094 3.4507272,3.4507276 0 0 0 -3.45094,3.45094 3.4507272,3.4507276 0 0 0 3.45094,3.45094 z"
       id="path10-18-3-1-2-7-9" />
    <path
       style="fill:none;fill-opacity:1;stroke:#0000ff;stroke-width:1;stroke-dasharray:none;stroke-opacity:1"
       d="m 74.218146,403.77131 a 3.4507272,3.4507276 0 0 0 3.45052,-3.45094 3.4507272,3.4507276 0 0 0 -3.45052,-3.45094 3.4507272,3.4507276 0 0 0 -3.45094,3.45094 3.4507272,3.4507276 0 0 0 3.45094,3.45094 z"
       id="path10-18-3-1-3-3-8-0" />
    <path
       style="fill:none;fill-opacity:1;stroke:#0000ff;stroke-width:0.928074;stroke-dasharray:none;stroke-opacity:1"
       d="M 127.40086,470.39669 127.0555,387.27557 24.138416,386.98593 Z"
       id="path3-2-4-91" />
    <path
       style="fill:none;fill-opacity:1;stroke:#0000ff;stroke-width:1;stroke-dasharray:none;stroke-opacity:1"
       d="m 143.97563,383.47687 0.42859,83.49822 127.71916,0.29095 z"
       id="path3-4-7" />
    <path
       style="fill:none;fill-opacity:1;stroke:#0000ff;stroke-width:1;stroke-dasharray:none;stroke-opacity:1"
       d="m 156.89635,405.38076 a 3.4507272,3.4507276 0 0 0 -3.45052,3.45094 3.4507272,3.4507276 0 0 0 3.45052,3.45094 3.4507272,3.4507276 0 0 0 3.45094,-3.45094 3.4507272,3.4507276 0 0 0 -3.45094,-3.45094 z"
       id="path10-18-4-7" />
    <path
       style="fill:none;fill-opacity:1;stroke:#0000ff;stroke-width:1;stroke-dasharray:none;stroke-opacity:1"
       d="m 156.89613,420.38054 a 3.4507272,3.4507276 0 0 0 -3.45053,3.45094 3.4507272,3.4507276 0 0 0 3.45053,3.45093 3.4507272,3.4507276 0 0 0 3.45094,-3.45093 3.4507272,3.4507276 0 0 0 -3.45094,-3.45094 z"
       id="path10-18-3-3-1" />
    <path
       style="fill:none;fill-opacity:1;stroke:#0000ff;stroke-width:1;stroke-dasharray:none;stroke-opacity:1"
       d="m 156.89635,501.00876 a 3.4507272,3.4507276 0 0 0 -3.45052,3.45094 3.4507272,3.4507276 0 0 0 3.45052,3.45094 3.4507272,3.4507276 0 0 0 3.45094,-3.45094 3.4507272,3.4507276 0 0 0 -3.45094,-3.45094 z"
       id="path10-18-6-0-1" />
    <path
       style="fill:none;fill-opacity:1;stroke:#0000ff;stroke-width:1;stroke-dasharray:none;stroke-opacity:1"
       d="m 156.89613,516.00853 a 3.4507272,3.4507276 0 0 0 -3.45053,3.45094 3.4507272,3.4507276 0 0 0 3.45053,3.45094 3.4507272,3.4507276 0 0 0 3.45094,-3.45094 3.4507272,3.4507276 0 0 0 -3.45094,-3.45094 z"
       id="path10-18-3-18-7-5" />
    <path
       style="fill:none;fill-opacity:1;stroke:#0000ff;stroke-width:1;stroke-dasharray:none;stroke-opacity:1"
       d="m 227.39913,450.38376 a 3.4507272,3.4507276 0 0 0 -3.45053,3.45094 3.4507272,3.4507276 0 0 0 3.45053,3.45094 3.4507272,3.4507276 0 0 0 3.45094,-3.45094 3.4507272,3.4507276 0 0 0 -3.45094,-3.45094 z"
       id="path10-18-3-1-8-9" />
    <path
       style="fill:none;fill-opacity:1;stroke:#0000ff;stroke-width:1;stroke-dasharray:none;stroke-opacity:1"
       d="m 212.39913,450.38376 a 3.4507272,3.4507276 0 0 0 -3.45053,3.45094 3.4507272,3.4507276 0 0 0 3.45053,3.45094 3.4507272,3.4507276 0 0 0 3.45094,-3.45094 3.4507272,3.4507276 0 0 0 -3.45094,-3.45094 z"
       id="path10-18-3-1-3-6-7" />
    <path
       style="fill:none;fill-opacity:1;stroke:#0000ff;stroke-width:1;stroke-dasharray:none;stroke-opacity:1"
       d="m 279.25557,467.03094 -0.42858,-83.49822 -127.71916,-0.29095 z"
       id="path3-28-8-7" />
    <path
       style="fill:none;fill-opacity:1;stroke:#0000ff;stroke-width:1;stroke-dasharray:none;stroke-opacity:1"
       d="m 266.33485,445.12705 a 3.4507272,3.4507276 0 0 0 3.45053,-3.45094 3.4507272,3.4507276 0 0 0 -3.45053,-3.45093 3.4507272,3.4507276 0 0 0 -3.45094,3.45093 3.4507272,3.4507276 0 0 0 3.45094,3.45094 z"
       id="path10-18-9-8-6" />
    <path
       style="fill:none;fill-opacity:1;stroke:#0000ff;stroke-width:1;stroke-dasharray:none;stroke-opacity:1"
       d="m 266.33508,430.12728 a 3.4507272,3.4507276 0 0 0 3.45053,-3.45094 3.4507272,3.4507276 0 0 0 -3.45053,-3.45094 3.4507272,3.4507276 0 0 0 -3.45094,3.45094 3.4507272,3.4507276 0 0 0 3.45094,3.45094 z"
       id="path10-18-3-7-4-7" />
    <path
       style="fill:none;fill-opacity:1;stroke:#0000ff;stroke-width:1;stroke-dasharray:none;stroke-opacity:1"
       d="m 195.83208,400.12405 a 3.4507272,3.4507276 0 0 0 3.45053,-3.45093 3.4507272,3.4507276 0 0 0 -3.45053,-3.45094 3.4507272,3.4507276 0 0 0 -3.45094,3.45094 3.4507272,3.4507276 0 0 0 3.45094,3.45093 z"
       id="path10-18-3-1-36-3-36" />
    <path
       style="fill:none;fill-opacity:1;stroke:#0000ff;stroke-width:1;stroke-dasharray:none;stroke-opacity:1"
       d="m 210.83209,400.12405 a 3.4507272,3.4507276 0 0 0 3.45052,-3.45093 3.4507272,3.4507276 0 0 0 -3.45052,-3.45094 3.4507272,3.4507276 0 0 0 -3.45095,3.45094 3.4507272,3.4507276 0 0 0 3.45095,3.45093 z"
       id="path10-18-3-1-3-1-1-5" />
    <path
       style="fill:none;fill-opacity:1;stroke:#0000ff;stroke-width:1;stroke-dasharray:none;stroke-opacity:1"
       d="m 212.19913,545.28376 a 3.4507272,3.4507276 0 0 0 -3.45053,3.45094 3.4507272,3.4507276 0 0 0 3.45053,3.45094 3.4507272,3.4507276 0 0 0 3.45094,-3.45094 3.4507272,3.4507276 0 0 0 -3.45094,-3.45094 z"
       id="path10-18-3-1-2-4-6" />
    <path
       style="fill:none;fill-opacity:1;stroke:#0000ff;stroke-width:1;stroke-dasharray:none;stroke-opacity:1"
       d="m 197.19913,545.28376 a 3.4507272,3.4507276 0 0 0 -3.45053,3.45094 3.4507272,3.4507276 0 0 0 3.45053,3.45094 3.4507272,3.4507276 0 0 0 3.45094,-3.45094 3.4507272,3.4507276 0 0 0 -3.45094,-3.45094 z"
       id="path10-18-3-1-3-3-9-3" />
    <path
       style="fill:none;fill-opacity:1;stroke:#0000ff;stroke-width:0.928074;stroke-dasharray:none;stroke-opacity:1"
       d="m 144.01642,478.65837 0.34536,83.12113 102.91708,0.28964 z"
       id="path3-2-2-9" />
    <path
       style="fill:none;fill-opacity:1;stroke:#0000ff;stroke-width:1;stroke-dasharray:none;stroke-opacity:1"
       d="m 240.06532,539.51604 a 3.4507272,3.4507276 0 0 0 3.45053,-3.45094 3.4507272,3.4507276 0 0 0 -3.45053,-3.45094 3.4507272,3.4507276 0 0 0 -3.45093,3.45094 3.4507272,3.4507276 0 0 0 3.45093,3.45094 z"
       id="path10-18-6-9-0-4" />
    <path
       style="fill:none;fill-opacity:1;stroke:#0000ff;stroke-width:1;stroke-dasharray:none;stroke-opacity:1"
       d="m 240.06555,524.51627 a 3.4507272,3.4507276 0 0 0 3.45053,-3.45093 3.4507272,3.4507276 0 0 0 -3.45053,-3.45094 3.4507272,3.4507276 0 0 0 -3.45094,3.45094 3.4507272,3.4507276 0 0 0 3.45094,3.45093 z"
       id="path10-18-3-18-4-6-8" />
    <path
       style="fill:none;fill-opacity:1;stroke:#0000ff;stroke-width:1;stroke-dasharray:none;stroke-opacity:1"
       d="m 184.76255,495.24105 a 3.4507272,3.4507276 0 0 0 3.45053,-3.45094 3.4507272,3.4507276 0 0 0 -3.45053,-3.45094 3.4507272,3.4507276 0 0 0 -3.45094,3.45094 3.4507272,3.4507276 0 0 0 3.45094,3.45094 z"
       id="path10-18-3-1-2-7-8-1" />
    <path
       style="fill:none;fill-opacity:1;stroke:#0000ff;stroke-width:1;stroke-dasharray:none;stroke-opacity:1"
       d="m 199.76255,495.24105 a 3.4507272,3.4507276 0 0 0 3.45052,-3.45094 3.4507272,3.4507276 0 0 0 -3.45052,-3.45094 3.4507272,3.4507276 0 0 0 -3.45094,3.45094 3.4507272,3.4507276 0 0 0 3.45094,3.45094 z"
       id="path10-18-3-1-3-3-8-9-2" />
    <path
       style="fill:none;fill-opacity:1;stroke:#0000ff;stroke-width:0.928074;stroke-dasharray:none;stroke-opacity:1"
       d="M 252.94526,561.86643 252.5999,478.74531 149.68282,478.45567 Z"
       id="path3-2-4-2-9" />
    <rect
       style="fill:none;fill-opacity:1;stroke:#0000ff;stroke-width:1;stroke-dasharray:none"
       id="rect1-1-3"
       width="69.169052"
       height="69.169052"
       x="237.15244"
       y="298.78299" />
    <path
       style="fill:none;fill-opacity:1;stroke:#0000ff;stroke-width:1;stroke-dasharray:none;stroke-opacity:1"
       d="m 257.28673,309.09549 a 3.5414737,3.5414736 0 0 0 -3.54151,3.54151 3.5414737,3.5414736 0 0 0 3.54151,3.54151 3.5414737,3.5414736 0 0 0 3.54151,-3.54151 3.5414737,3.5414736 0 0 0 -3.54151,-3.54151 z"
       id="path10-0-9" />
    <path
       style="fill:none;fill-opacity:1;stroke:#0000ff;stroke-width:1;stroke-dasharray:none;stroke-opacity:1"
       d="m 286.28673,309.09567 a 3.5413121,3.5413126 0 0 0 -3.54134,3.54134 3.5413121,3.5413126 0 0 0 3.54134,3.54134 3.5413121,3.5413126 0 0 0 3.54134,-3.54134 3.5413121,3.5413126 0 0 0 -3.54134,-3.54134 z"
       id="path10-36-6-0" />
    <path
       style="fill:none;fill-opacity:1;stroke:#0000ff;stroke-width:1;stroke-dasharray:none;stroke-opacity:1"
       d="m 257.28673,339.19531 a 3.5414762,3.5414761 0 0 0 -3.54151,3.54152 3.5414762,3.5414761 0 0 0 3.54151,3.5415 3.5414762,3.5414761 0 0 0 3.54152,-3.5415 3.5414762,3.5414761 0 0 0 -3.54152,-3.54152 z"
       id="path10-7-1-8" />
    <path
       style="fill:none;fill-opacity:1;stroke:#0000ff;stroke-width:1;stroke-dasharray:none;stroke-opacity:1"
       d="m 286.28673,339.19585 a 3.5413121,3.5413126 0 0 0 -3.54134,3.54134 3.5413121,3.5413126 0 0 0 3.54134,3.54133 3.5413121,3.5413126 0 0 0 3.54134,-3.54133 3.5413121,3.5413126 0 0 0 -3.54134,-3.54134 z"
       id="path10-36-5-5-8" />
    <path
       style="fill:none;fill-opacity:1;stroke:#0000ff;stroke-width:1;stroke-dasharray:none;stroke-opacity:1"
       d="m 257.28673,354.19567 a 3.5414737,3.5414736 0 0 0 -3.54151,3.54151 3.5414737,3.5414736 0 0 0 3.54151,3.5415 3.5414737,3.5414736 0 0 0 3.54151,-3.5415 3.5414737,3.5414736 0 0 0 -3.54151,-3.54151 z"
       id="path10-7-9-9-5" />
    <path
       style="fill:none;fill-opacity:1;stroke:#0000ff;stroke-width:1;stroke-dasharray:none;stroke-opacity:1"
       d="m 286.28673,354.19585 a 3.5413121,3.5413126 0 0 0 -3.54134,3.54133 3.5413121,3.5413126 0 0 0 3.54134,3.54134 3.5413121,3.5413126 0 0 0 3.54134,-3.54134 3.5413121,3.5413126 0 0 0 -3.54134,-3.54133 z"
       id="path10-36-5-7-4-09" />
    <rect
       style="fill:none;fill-opacity:1;stroke:#0000ff;stroke-width:1;stroke-dasharray:none"
       id="rect1-1-6-6"
       width="69.169052"
       height="69.169052"
       x="164.42258"
       y="298.64127" />
    <path
       style="fill:none;fill-opacity:1;stroke:#0000ff;stroke-width:1;stroke-dasharray:none;stroke-opacity:1"
       d="m 184.55687,308.95376 a 3.5414737,3.5414736 0 0 0 -3.54151,3.54152 3.5414737,3.5414736 0 0 0 3.54151,3.5415 3.5414737,3.5414736 0 0 0 3.54151,-3.5415 3.5414737,3.5414736 0 0 0 -3.54151,-3.54152 z"
       id="path10-0-1-3" />
    <path
       style="fill:none;fill-opacity:1;stroke:#0000ff;stroke-width:1;stroke-dasharray:none;stroke-opacity:1"
       d="m 213.55687,308.95394 a 3.5413121,3.5413126 0 0 0 -3.54134,3.54134 3.5413121,3.5413126 0 0 0 3.54134,3.54134 3.5413121,3.5413126 0 0 0 3.54134,-3.54134 3.5413121,3.5413126 0 0 0 -3.54134,-3.54134 z"
       id="path10-36-6-8-8" />
    <path
       style="fill:none;fill-opacity:1;stroke:#0000ff;stroke-width:1;stroke-dasharray:none;stroke-opacity:1"
       d="m 184.55687,339.05358 a 3.5414762,3.5414761 0 0 0 -3.54151,3.54151 3.5414762,3.5414761 0 0 0 3.54151,3.54151 3.5414762,3.5414761 0 0 0 3.54152,-3.54151 3.5414762,3.5414761 0 0 0 -3.54152,-3.54151 z"
       id="path10-7-1-7-5" />
    <path
       style="fill:none;fill-opacity:1;stroke:#0000ff;stroke-width:1;stroke-dasharray:none;stroke-opacity:1"
       d="m 213.55687,339.05412 a 3.5413121,3.5413126 0 0 0 -3.54134,3.54133 3.5413121,3.5413126 0 0 0 3.54134,3.54134 3.5413121,3.5413126 0 0 0 3.54134,-3.54134 3.5413121,3.5413126 0 0 0 -3.54134,-3.54133 z"
       id="path10-36-5-5-9-6" />
    <path
       style="fill:none;fill-opacity:1;stroke:#0000ff;stroke-width:1;stroke-dasharray:none;stroke-opacity:1"
       d="m 184.55687,354.05394 a 3.5414737,3.5414736 0 0 0 -3.54151,3.54151 3.5414737,3.5414736 0 0 0 3.54151,3.5415 3.5414737,3.5414736 0 0 0 3.54151,-3.5415 3.5414737,3.5414736 0 0 0 -3.54151,-3.54151 z"
       id="path10-7-9-9-2-1" />
    <path
       style="fill:none;fill-opacity:1;stroke:#0000ff;stroke-width:1;stroke-dasharray:none;stroke-opacity:1"
       d="m 213.55687,354.05412 a 3.5413121,3.5413126 0 0 0 -3.54134,3.54133 3.5413121,3.5413126 0 0 0 3.54134,3.54134 3.5413121,3.5413126 0 0 0 3.54134,-3.54134 3.5413121,3.5413126 0 0 0 -3.54134,-3.54133 z"
       id="path10-36-5-7-4-0-1" />
    <path
       style="fill:none;fill-opacity:1;stroke:#0000ff;stroke-width:1;stroke-dasharray:none;stroke-opacity:1"
       d="m 325.08926,289.91051 0.42859,83.49822 127.71916,0.29094 z"
       id="path3-9-5" />
    <path
       style="fill:none;fill-opacity:1;stroke:#0000ff;stroke-width:1;stroke-dasharray:none;stroke-opacity:1"
       d="m 338.00998,311.8144 a 3.4507272,3.4507276 0 0 0 -3.45052,3.45094 3.4507272,3.4507276 0 0 0 3.45052,3.45094 3.4507272,3.4507276 0 0 0 3.45094,-3.45094 3.4507272,3.4507276 0 0 0 -3.45094,-3.45094 z"
       id="path10-18-1-9" />
    <path
       style="fill:none;fill-opacity:1;stroke:#0000ff;stroke-width:1;stroke-dasharray:none;stroke-opacity:1"
       d="m 338.00976,326.81416 a 3.4507272,3.4507276 0 0 0 -3.45053,3.45094 3.4507272,3.4507276 0 0 0 3.45053,3.45094 3.4507272,3.4507276 0 0 0 3.45094,-3.45094 3.4507272,3.4507276 0 0 0 -3.45094,-3.45094 z"
       id="path10-18-3-2-8" />
    <path
       style="fill:none;fill-opacity:1;stroke:#0000ff;stroke-width:1;stroke-dasharray:none;stroke-opacity:1"
       d="m 338.00998,407.4424 a 3.4507272,3.4507276 0 0 0 -3.45052,3.45094 3.4507272,3.4507276 0 0 0 3.45052,3.45094 3.4507272,3.4507276 0 0 0 3.45094,-3.45094 3.4507272,3.4507276 0 0 0 -3.45094,-3.45094 z"
       id="path10-18-6-7-4" />
    <path
       style="fill:none;fill-opacity:1;stroke:#0000ff;stroke-width:1;stroke-dasharray:none;stroke-opacity:1"
       d="m 338.00976,422.44217 a 3.4507272,3.4507276 0 0 0 -3.45053,3.45094 3.4507272,3.4507276 0 0 0 3.45053,3.45094 3.4507272,3.4507276 0 0 0 3.45094,-3.45094 3.4507272,3.4507276 0 0 0 -3.45094,-3.45094 z"
       id="path10-18-3-18-0-8" />
    <path
       style="fill:none;fill-opacity:1;stroke:#0000ff;stroke-width:1;stroke-dasharray:none;stroke-opacity:1"
       d="m 408.51276,356.81739 a 3.4507272,3.4507276 0 0 0 -3.45053,3.45094 3.4507272,3.4507276 0 0 0 3.45053,3.45094 3.4507272,3.4507276 0 0 0 3.45094,-3.45094 3.4507272,3.4507276 0 0 0 -3.45094,-3.45094 z"
       id="path10-18-3-1-9-1" />
    <path
       style="fill:none;fill-opacity:1;stroke:#0000ff;stroke-width:1;stroke-dasharray:none;stroke-opacity:1"
       d="m 393.51276,356.81739 a 3.4507272,3.4507276 0 0 0 -3.45053,3.45094 3.4507272,3.4507276 0 0 0 3.45053,3.45094 3.4507272,3.4507276 0 0 0 3.45094,-3.45094 3.4507272,3.4507276 0 0 0 -3.45094,-3.45094 z"
       id="path10-18-3-1-3-36-0" />
    <path
       style="fill:none;fill-opacity:1;stroke:#0000ff;stroke-width:1;stroke-dasharray:none;stroke-opacity:1"
       d="m 460.3692,373.46457 -0.42858,-83.49821 -127.71916,-0.29095 z"
       id="path3-28-0-3" />
    <path
       style="fill:none;fill-opacity:1;stroke:#0000ff;stroke-width:1;stroke-dasharray:none;stroke-opacity:1"
       d="m 447.44848,351.56068 a 3.4507272,3.4507276 0 0 0 3.45053,-3.45094 3.4507272,3.4507276 0 0 0 -3.45053,-3.45093 3.4507272,3.4507276 0 0 0 -3.45094,3.45093 3.4507272,3.4507276 0 0 0 3.45094,3.45094 z"
       id="path10-18-9-6-0" />
    <path
       style="fill:none;fill-opacity:1;stroke:#0000ff;stroke-width:1;stroke-dasharray:none;stroke-opacity:1"
       d="m 447.44871,336.56091 a 3.4507272,3.4507276 0 0 0 3.45053,-3.45094 3.4507272,3.4507276 0 0 0 -3.45053,-3.45094 3.4507272,3.4507276 0 0 0 -3.45094,3.45094 3.4507272,3.4507276 0 0 0 3.45094,3.45094 z"
       id="path10-18-3-7-2-4" />
    <path
       style="fill:none;fill-opacity:1;stroke:#0000ff;stroke-width:1;stroke-dasharray:none;stroke-opacity:1"
       d="m 376.94571,306.55768 a 3.4507272,3.4507276 0 0 0 3.45053,-3.45093 3.4507272,3.4507276 0 0 0 -3.45053,-3.45093 3.4507272,3.4507276 0 0 0 -3.45094,3.45093 3.4507272,3.4507276 0 0 0 3.45094,3.45093 z"
       id="path10-18-3-1-36-6-4" />
    <path
       style="fill:none;fill-opacity:1;stroke:#0000ff;stroke-width:1;stroke-dasharray:none;stroke-opacity:1"
       d="m 391.94571,306.55768 a 3.4507272,3.4507276 0 0 0 3.45053,-3.45093 3.4507272,3.4507276 0 0 0 -3.45053,-3.45093 3.4507272,3.4507276 0 0 0 -3.45094,3.45093 3.4507272,3.4507276 0 0 0 3.45094,3.45093 z"
       id="path10-18-3-1-3-1-18-4" />
    <path
       style="fill:none;fill-opacity:1;stroke:#0000ff;stroke-width:1;stroke-dasharray:none;stroke-opacity:1"
       d="m 393.31276,451.7174 a 3.4507272,3.4507276 0 0 0 -3.45053,3.45094 3.4507272,3.4507276 0 0 0 3.45053,3.45094 3.4507272,3.4507276 0 0 0 3.45094,-3.45094 3.4507272,3.4507276 0 0 0 -3.45094,-3.45094 z"
       id="path10-18-3-1-2-79-4" />
    <path
       style="fill:none;fill-opacity:1;stroke:#0000ff;stroke-width:1;stroke-dasharray:none;stroke-opacity:1"
       d="m 378.31276,451.7174 a 3.4507272,3.4507276 0 0 0 -3.45053,3.45094 3.4507272,3.4507276 0 0 0 3.45053,3.45094 3.4507272,3.4507276 0 0 0 3.45094,-3.45094 3.4507272,3.4507276 0 0 0 -3.45094,-3.45094 z"
       id="path10-18-3-1-3-3-2-7" />
    <path
       style="fill:none;fill-opacity:1;stroke:#0000ff;stroke-width:0.928074;stroke-dasharray:none;stroke-opacity:1"
       d="m 325.13005,385.09201 0.34536,83.12113 102.91708,0.28964 z"
       id="path3-2-0-6" />
    <path
       style="fill:none;fill-opacity:1;stroke:#0000ff;stroke-width:1;stroke-dasharray:none;stroke-opacity:1"
       d="m 421.17895,445.94968 a 3.4507272,3.4507276 0 0 0 3.45053,-3.45094 3.4507272,3.4507276 0 0 0 -3.45053,-3.45094 3.4507272,3.4507276 0 0 0 -3.45093,3.45094 3.4507272,3.4507276 0 0 0 3.45093,3.45094 z"
       id="path10-18-6-9-2-3" />
    <path
       style="fill:none;fill-opacity:1;stroke:#0000ff;stroke-width:1;stroke-dasharray:none;stroke-opacity:1"
       d="m 421.17918,430.94991 a 3.4507272,3.4507276 0 0 0 3.45053,-3.45093 3.4507272,3.4507276 0 0 0 -3.45053,-3.45094 3.4507272,3.4507276 0 0 0 -3.45094,3.45094 3.4507272,3.4507276 0 0 0 3.45094,3.45093 z"
       id="path10-18-3-18-4-3-1" />
    <path
       style="fill:none;fill-opacity:1;stroke:#0000ff;stroke-width:1;stroke-dasharray:none;stroke-opacity:1"
       d="m 365.87618,401.67469 a 3.4507272,3.4507276 0 0 0 3.45053,-3.45094 3.4507272,3.4507276 0 0 0 -3.45053,-3.45094 3.4507272,3.4507276 0 0 0 -3.45094,3.45094 3.4507272,3.4507276 0 0 0 3.45094,3.45094 z"
       id="path10-18-3-1-2-7-7-7" />
    <path
       style="fill:none;fill-opacity:1;stroke:#0000ff;stroke-width:1;stroke-dasharray:none;stroke-opacity:1"
       d="m 380.87618,401.67469 a 3.4507272,3.4507276 0 0 0 3.45052,-3.45094 3.4507272,3.4507276 0 0 0 -3.45052,-3.45094 3.4507272,3.4507276 0 0 0 -3.45094,3.45094 3.4507272,3.4507276 0 0 0 3.45094,3.45094 z"
       id="path10-18-3-1-3-3-8-5-5" />
    <path
       style="fill:none;fill-opacity:1;stroke:#0000ff;stroke-width:0.928074;stroke-dasharray:none;stroke-opacity:1"
       d="m 434.05889,468.30007 -0.34536,-83.12112 -102.91708,-0.28964 z"
       id="path3-2-4-9-9" />
    <path
       style="fill:none;fill-opacity:1;stroke:#0000ff;stroke-width:1;stroke-dasharray:none;stroke-opacity:1"
       d="m 450.63366,381.38025 0.42859,83.49822 127.71916,0.29095 z"
       id="path3-4-2-6" />
    <path
       style="fill:none;fill-opacity:1;stroke:#0000ff;stroke-width:1;stroke-dasharray:none;stroke-opacity:1"
       d="m 463.55438,403.28414 a 3.4507272,3.4507276 0 0 0 -3.45052,3.45094 3.4507272,3.4507276 0 0 0 3.45052,3.45094 3.4507272,3.4507276 0 0 0 3.45094,-3.45094 3.4507272,3.4507276 0 0 0 -3.45094,-3.45094 z"
       id="path10-18-4-2-2" />
    <path
       style="fill:none;fill-opacity:1;stroke:#0000ff;stroke-width:1;stroke-dasharray:none;stroke-opacity:1"
       d="m 463.55416,418.28392 a 3.4507272,3.4507276 0 0 0 -3.45053,3.45094 3.4507272,3.4507276 0 0 0 3.45053,3.45093 3.4507272,3.4507276 0 0 0 3.45094,-3.45093 3.4507272,3.4507276 0 0 0 -3.45094,-3.45094 z"
       id="path10-18-3-3-8-1" />
    <path
       style="fill:none;fill-opacity:1;stroke:#0000ff;stroke-width:1;stroke-dasharray:none;stroke-opacity:1"
       d="m 463.55438,498.91214 a 3.4507272,3.4507276 0 0 0 -3.45052,3.45094 3.4507272,3.4507276 0 0 0 3.45052,3.45094 3.4507272,3.4507276 0 0 0 3.45094,-3.45094 3.4507272,3.4507276 0 0 0 -3.45094,-3.45094 z"
       id="path10-18-6-0-9-7" />
    <path
       style="fill:none;fill-opacity:1;stroke:#0000ff;stroke-width:1;stroke-dasharray:none;stroke-opacity:1"
       d="m 463.55416,513.91191 a 3.4507272,3.4507276 0 0 0 -3.45053,3.45094 3.4507272,3.4507276 0 0 0 3.45053,3.45094 3.4507272,3.4507276 0 0 0 3.45094,-3.45094 3.4507272,3.4507276 0 0 0 -3.45094,-3.45094 z"
       id="path10-18-3-18-7-7-8" />
    <path
       style="fill:none;fill-opacity:1;stroke:#0000ff;stroke-width:1;stroke-dasharray:none;stroke-opacity:1"
       d="m 534.05716,448.28714 a 3.4507272,3.4507276 0 0 0 -3.45053,3.45094 3.4507272,3.4507276 0 0 0 3.45053,3.45094 3.4507272,3.4507276 0 0 0 3.45094,-3.45094 3.4507272,3.4507276 0 0 0 -3.45094,-3.45094 z"
       id="path10-18-3-1-8-3-5" />
    <path
       style="fill:none;fill-opacity:1;stroke:#0000ff;stroke-width:1;stroke-dasharray:none;stroke-opacity:1"
       d="m 519.05716,448.28714 a 3.4507272,3.4507276 0 0 0 -3.45053,3.45094 3.4507272,3.4507276 0 0 0 3.45053,3.45094 3.4507272,3.4507276 0 0 0 3.45094,-3.45094 3.4507272,3.4507276 0 0 0 -3.45094,-3.45094 z"
       id="path10-18-3-1-3-6-6-7" />
    <path
       style="fill:none;fill-opacity:1;stroke:#0000ff;stroke-width:1;stroke-dasharray:none;stroke-opacity:1"
       d="M 585.9136,464.93432 585.48502,381.4361 457.76586,381.14514 Z"
       id="path3-28-8-1-4" />
    <path
       style="fill:none;fill-opacity:1;stroke:#0000ff;stroke-width:1;stroke-dasharray:none;stroke-opacity:1"
       d="m 572.99288,443.03043 a 3.4507272,3.4507276 0 0 0 3.45053,-3.45094 3.4507272,3.4507276 0 0 0 -3.45053,-3.45093 3.4507272,3.4507276 0 0 0 -3.45094,3.45093 3.4507272,3.4507276 0 0 0 3.45094,3.45094 z"
       id="path10-18-9-8-2-1" />
    <path
       style="fill:none;fill-opacity:1;stroke:#0000ff;stroke-width:1;stroke-dasharray:none;stroke-opacity:1"
       d="m 572.99311,428.03066 a 3.4507272,3.4507276 0 0 0 3.45053,-3.45094 3.4507272,3.4507276 0 0 0 -3.45053,-3.45094 3.4507272,3.4507276 0 0 0 -3.45094,3.45094 3.4507272,3.4507276 0 0 0 3.45094,3.45094 z"
       id="path10-18-3-7-4-9-8" />
    <path
       style="fill:none;fill-opacity:1;stroke:#0000ff;stroke-width:1;stroke-dasharray:none;stroke-opacity:1"
       d="m 502.49011,398.02743 a 3.4507272,3.4507276 0 0 0 3.45053,-3.45093 3.4507272,3.4507276 0 0 0 -3.45053,-3.45094 3.4507272,3.4507276 0 0 0 -3.45094,3.45094 3.4507272,3.4507276 0 0 0 3.45094,3.45093 z"
       id="path10-18-3-1-36-3-3-5" />
    <path
       style="fill:none;fill-opacity:1;stroke:#0000ff;stroke-width:1;stroke-dasharray:none;stroke-opacity:1"
       d="m 517.49012,398.02743 a 3.4507272,3.4507276 0 0 0 3.45052,-3.45093 3.4507272,3.4507276 0 0 0 -3.45052,-3.45094 3.4507272,3.4507276 0 0 0 -3.45095,3.45094 3.4507272,3.4507276 0 0 0 3.45095,3.45093 z"
       id="path10-18-3-1-3-1-1-1-9" />
    <path
       style="fill:none;fill-opacity:1;stroke:#0000ff;stroke-width:1;stroke-dasharray:none;stroke-opacity:1"
       d="m 518.85716,543.18714 a 3.4507272,3.4507276 0 0 0 -3.45053,3.45094 3.4507272,3.4507276 0 0 0 3.45053,3.45094 3.4507272,3.4507276 0 0 0 3.45094,-3.45094 3.4507272,3.4507276 0 0 0 -3.45094,-3.45094 z"
       id="path10-18-3-1-2-4-9-7" />
    <path
       style="fill:none;fill-opacity:1;stroke:#0000ff;stroke-width:1;stroke-dasharray:none;stroke-opacity:1"
       d="m 503.85716,543.18714 a 3.4507272,3.4507276 0 0 0 -3.45053,3.45094 3.4507272,3.4507276 0 0 0 3.45053,3.45094 3.4507272,3.4507276 0 0 0 3.45094,-3.45094 3.4507272,3.4507276 0 0 0 -3.45094,-3.45094 z"
       id="path10-18-3-1-3-3-9-4-5" />
    <path
       style="fill:none;fill-opacity:1;stroke:#0000ff;stroke-width:0.928074;stroke-dasharray:none;stroke-opacity:1"
       d="m 450.67445,476.56175 0.34536,83.12113 102.91708,0.28964 z"
       id="path3-2-2-7-3" />
    <path
       style="fill:none;fill-opacity:1;stroke:#0000ff;stroke-width:1;stroke-dasharray:none;stroke-opacity:1"
       d="m 546.72335,537.41942 a 3.4507272,3.4507276 0 0 0 3.45053,-3.45094 3.4507272,3.4507276 0 0 0 -3.45053,-3.45094 3.4507272,3.4507276 0 0 0 -3.45093,3.45094 3.4507272,3.4507276 0 0 0 3.45093,3.45094 z"
       id="path10-18-6-9-0-8-8" />
    <path
       style="fill:none;fill-opacity:1;stroke:#0000ff;stroke-width:1;stroke-dasharray:none;stroke-opacity:1"
       d="m 546.72358,522.41965 a 3.4507272,3.4507276 0 0 0 3.45053,-3.45093 3.4507272,3.4507276 0 0 0 -3.45053,-3.45094 3.4507272,3.4507276 0 0 0 -3.45094,3.45094 3.4507272,3.4507276 0 0 0 3.45094,3.45093 z"
       id="path10-18-3-18-4-6-4-8" />
    <path
       style="fill:none;fill-opacity:1;stroke:#0000ff;stroke-width:1;stroke-dasharray:none;stroke-opacity:1"
       d="m 491.42058,493.14443 a 3.4507272,3.4507276 0 0 0 3.45053,-3.45094 3.4507272,3.4507276 0 0 0 -3.45053,-3.45094 3.4507272,3.4507276 0 0 0 -3.45094,3.45094 3.4507272,3.4507276 0 0 0 3.45094,3.45094 z"
       id="path10-18-3-1-2-7-8-5-3" />
    <path
       style="fill:none;fill-opacity:1;stroke:#0000ff;stroke-width:1;stroke-dasharray:none;stroke-opacity:1"
       d="m 506.42058,493.14443 a 3.4507272,3.4507276 0 0 0 3.45052,-3.45094 3.4507272,3.4507276 0 0 0 -3.45052,-3.45094 3.4507272,3.4507276 0 0 0 -3.45094,3.45094 3.4507272,3.4507276 0 0 0 3.45094,3.45094 z"
       id="path10-18-3-1-3-3-8-9-0-1" />
    <path
       style="fill:none;fill-opacity:1;stroke:#0000ff;stroke-width:0.928074;stroke-dasharray:none;stroke-opacity:1"
       d="m 559.60329,559.76981 -0.34536,-83.12112 -102.91708,-0.28964 z"
       id="path3-2-4-2-3-8" />
    <rect
       style="fill:none;fill-opacity:1;stroke:#0000ff;stroke-width:1;stroke-dasharray:none"
       id="rect1-1-61-9"
       width="69.169052"
       height="69.169052"
       x="543.81049"
       y="296.68637" />
    <path
       style="fill:none;fill-opacity:1;stroke:#0000ff;stroke-width:1;stroke-dasharray:none;stroke-opacity:1"
       d="m 563.94476,306.99887 a 3.5414737,3.5414736 0 0 0 -3.54151,3.54151 3.5414737,3.5414736 0 0 0 3.54151,3.5415 3.5414737,3.5414736 0 0 0 3.54151,-3.5415 3.5414737,3.5414736 0 0 0 -3.54151,-3.54151 z"
       id="path10-0-0-6" />
    <path
       style="fill:none;fill-opacity:1;stroke:#0000ff;stroke-width:1;stroke-dasharray:none;stroke-opacity:1"
       d="m 592.94476,306.99905 a 3.5413121,3.5413126 0 0 0 -3.54134,3.54134 3.5413121,3.5413126 0 0 0 3.54134,3.54134 3.5413121,3.5413126 0 0 0 3.54134,-3.54134 3.5413121,3.5413126 0 0 0 -3.54134,-3.54134 z"
       id="path10-36-6-6-4" />
    <path
       style="fill:none;fill-opacity:1;stroke:#0000ff;stroke-width:1;stroke-dasharray:none;stroke-opacity:1"
       d="m 563.94476,337.09869 a 3.5414762,3.5414761 0 0 0 -3.54151,3.54151 3.5414762,3.5414761 0 0 0 3.54151,3.5415 3.5414762,3.5414761 0 0 0 3.54152,-3.5415 3.5414762,3.5414761 0 0 0 -3.54152,-3.54151 z"
       id="path10-7-1-3-3" />
    <path
       style="fill:none;fill-opacity:1;stroke:#0000ff;stroke-width:1;stroke-dasharray:none;stroke-opacity:1"
       d="m 592.94476,337.09923 a 3.5413121,3.5413126 0 0 0 -3.54134,3.54133 3.5413121,3.5413126 0 0 0 3.54134,3.54133 3.5413121,3.5413126 0 0 0 3.54134,-3.54133 3.5413121,3.5413126 0 0 0 -3.54134,-3.54133 z"
       id="path10-36-5-5-2-3" />
    <path
       style="fill:none;fill-opacity:1;stroke:#0000ff;stroke-width:1;stroke-dasharray:none;stroke-opacity:1"
       d="m 563.94476,352.09905 a 3.5414737,3.5414736 0 0 0 -3.54151,3.5415 3.5414737,3.5414736 0 0 0 3.54151,3.54151 3.5414737,3.5414736 0 0 0 3.54151,-3.54151 3.5414737,3.5414736 0 0 0 -3.54151,-3.5415 z"
       id="path10-7-9-9-0-3" />
    <path
       style="fill:none;fill-opacity:1;stroke:#0000ff;stroke-width:1;stroke-dasharray:none;stroke-opacity:1"
       d="m 592.94476,352.09923 a 3.5413121,3.5413126 0 0 0 -3.54134,3.54132 3.5413121,3.5413126 0 0 0 3.54134,3.54135 3.5413121,3.5413126 0 0 0 3.54134,-3.54135 3.5413121,3.5413126 0 0 0 -3.54134,-3.54132 z"
       id="path10-36-5-7-4-6-8" />
    <rect
       style="fill:none;fill-opacity:1;stroke:#0000ff;stroke-width:0.705631;stroke-dasharray:none"
       id="rect1-1-61-8-60"
       width="34.294369"
       height="69.463425"
       x="54.655556"
       y="485.45889" />
    <path
       style="fill:none;fill-opacity:1;stroke:#0000ff;stroke-width:1;stroke-dasharray:none;stroke-opacity:1"
       d="m 72.636536,495.91873 a 3.5413121,3.5413126 0 0 0 -3.54134,3.54134 3.5413121,3.5413126 0 0 0 3.54134,3.54134 3.5413121,3.5413126 0 0 0 3.54134,-3.54134 3.5413121,3.5413126 0 0 0 -3.54134,-3.54134 z"
       id="path10-36-6-6-8-4" />
    <path
       style="fill:none;fill-opacity:1;stroke:#0000ff;stroke-width:1;stroke-dasharray:none;stroke-opacity:1"
       d="m 72.636536,526.01891 a 3.5413121,3.5413126 0 0 0 -3.54134,3.54134 3.5413121,3.5413126 0 0 0 3.54134,3.54133 3.5413121,3.5413126 0 0 0 3.54134,-3.54133 3.5413121,3.5413126 0 0 0 -3.54134,-3.54134 z"
       id="path10-36-5-5-2-4-8" />
    <path
       style="fill:none;fill-opacity:1;stroke:#0000ff;stroke-width:1;stroke-dasharray:none;stroke-opacity:1"
       d="m 72.636536,541.01891 a 3.5413121,3.5413126 0 0 0 -3.54134,3.54133 3.5413121,3.5413126 0 0 0 3.54134,3.54134 3.5413121,3.5413126 0 0 0 3.54134,-3.54134 3.5413121,3.5413126 0 0 0 -3.54134,-3.54133 z"
       id="path10-36-5-7-4-6-1-8" />
    <rect
       style="fill:none;fill-opacity:1;stroke:#0000ff;stroke-width:0.705631;stroke-dasharray:none"
       id="rect1-1-61-8-6-8"
       width="34.294369"
       height="69.463425"
       x="360.25287"
       y="485.56058" />
    <path
       style="fill:none;fill-opacity:1;stroke:#0000ff;stroke-width:1;stroke-dasharray:none;stroke-opacity:1"
       d="m 378.23383,496.02042 a 3.5413121,3.5413126 0 0 0 -3.54134,3.54134 3.5413121,3.5413126 0 0 0 3.54134,3.54134 3.5413121,3.5413126 0 0 0 3.54134,-3.54134 3.5413121,3.5413126 0 0 0 -3.54134,-3.54134 z"
       id="path10-36-6-6-8-8-9" />
    <path
       style="fill:none;fill-opacity:1;stroke:#0000ff;stroke-width:1;stroke-dasharray:none;stroke-opacity:1"
       d="m 378.23383,526.1206 a 3.5413121,3.5413126 0 0 0 -3.54134,3.54134 3.5413121,3.5413126 0 0 0 3.54134,3.54133 3.5413121,3.5413126 0 0 0 3.54134,-3.54133 3.5413121,3.5413126 0 0 0 -3.54134,-3.54134 z"
       id="path10-36-5-5-2-4-9-7" />
    <path
       style="fill:none;fill-opacity:1;stroke:#0000ff;stroke-width:1;stroke-dasharray:none;stroke-opacity:1"
       d="m 378.23383,541.1206 a 3.5413121,3.5413126 0 0 0 -3.54134,3.54133 3.5413121,3.5413126 0 0 0 3.54134,3.54134 3.5413121,3.5413126 0 0 0 3.54134,-3.54134 3.5413121,3.5413126 0 0 0 -3.54134,-3.54133 z"
       id="path10-36-5-7-4-6-1-2-7" />
    <rect
       style="fill:none;fill-opacity:1;stroke:#0000ff;stroke-width:1;stroke-dasharray:none"
       id="rect1-1-6-1-6"
       width="69.169052"
       height="69.169052"
       x="471.08063"
       y="296.54462" />
    <path
       style="fill:none;fill-opacity:1;stroke:#0000ff;stroke-width:1;stroke-dasharray:none;stroke-opacity:1"
       d="m 491.2149,306.85713 a 3.5414737,3.5414736 0 0 0 -3.54151,3.54153 3.5414737,3.5414736 0 0 0 3.54151,3.5415 3.5414737,3.5414736 0 0 0 3.54151,-3.5415 3.5414737,3.5414736 0 0 0 -3.54151,-3.54153 z"
       id="path10-0-1-5-4" />
    <path
       style="fill:none;fill-opacity:1;stroke:#0000ff;stroke-width:1;stroke-dasharray:none;stroke-opacity:1"
       d="m 520.2149,306.85731 a 3.5413121,3.5413126 0 0 0 -3.54134,3.54135 3.5413121,3.5413126 0 0 0 3.54134,3.54134 3.5413121,3.5413126 0 0 0 3.54134,-3.54134 3.5413121,3.5413126 0 0 0 -3.54134,-3.54135 z"
       id="path10-36-6-8-5-3" />
    <path
       style="fill:none;fill-opacity:1;stroke:#0000ff;stroke-width:1;stroke-dasharray:none;stroke-opacity:1"
       d="m 491.2149,336.95696 a 3.5414762,3.5414761 0 0 0 -3.54151,3.5415 3.5414762,3.5414761 0 0 0 3.54151,3.54151 3.5414762,3.5414761 0 0 0 3.54152,-3.54151 3.5414762,3.5414761 0 0 0 -3.54152,-3.5415 z"
       id="path10-7-1-7-4-0" />
    <path
       style="fill:none;fill-opacity:1;stroke:#0000ff;stroke-width:1;stroke-dasharray:none;stroke-opacity:1"
       d="m 520.2149,336.9575 a 3.5413121,3.5413126 0 0 0 -3.54134,3.54132 3.5413121,3.5413126 0 0 0 3.54134,3.54134 3.5413121,3.5413126 0 0 0 3.54134,-3.54134 3.5413121,3.5413126 0 0 0 -3.54134,-3.54132 z"
       id="path10-36-5-5-9-7-3" />
    <path
       style="fill:none;fill-opacity:1;stroke:#0000ff;stroke-width:1;stroke-dasharray:none;stroke-opacity:1"
       d="m 491.2149,351.95732 a 3.5414737,3.5414736 0 0 0 -3.54151,3.5415 3.5414737,3.5414736 0 0 0 3.54151,3.54151 3.5414737,3.5414736 0 0 0 3.54151,-3.54151 3.5414737,3.5414736 0 0 0 -3.54151,-3.5415 z"
       id="path10-7-9-9-2-6-0" />
    <path
       style="fill:none;fill-opacity:1;stroke:#0000ff;stroke-width:1;stroke-dasharray:none;stroke-opacity:1"
       d="m 520.2149,351.9575 a 3.5413121,3.5413126 0 0 0 -3.54134,3.54132 3.5413121,3.5413126 0 0 0 3.54134,3.54135 3.5413121,3.5413126 0 0 0 3.54134,-3.54135 3.5413121,3.5413126 0 0 0 -3.54134,-3.54132 z"
       id="path10-36-5-7-4-0-5-9" />
  </g>
</svg>
